<?xml version="1.0" encoding="UTF-8"?>
<svg width="34px" height="35px" viewBox="0 0 34 35" version="1.1" xmlns="http://www.w3.org/2000/svg" xmlns:xlink="http://www.w3.org/1999/xlink">
    <!-- Generator: Sketch 49.3 (51167) - http://www.bohemiancoding.com/sketch -->
    <title>Cup</title>
    <desc>Created with Sketch.</desc>
    <defs></defs>
    <g id="Page-1" stroke="none" stroke-width="1" fill="none" fill-rule="evenodd">
        <g id="Public-Profile" transform="translate(-513.000000, -952.000000)" fill="#FFDD71">
            <g id="Окошко" transform="translate(483.000000, 0.000000)">
                <g id="История" transform="translate(0.000000, 721.000000)">
                    <g id="3" transform="translate(0.000000, 203.000000)">
                        <g id="Cup" transform="translate(30.000000, 28.000000)">
                            <path d="M28.3501088,1.78258323 C28.3519986,2.09865748 28.3491638,2.50969576 28.3335727,3.00199677 L33.3576888,3.00199677 L33.3420977,3.69084022 C33.3416253,3.7291093 33.3175299,4.65040199 33.0959472,6.05879864 C32.9660213,6.88134765 32.7940467,7.70389665 32.5866377,8.50282277 C32.3253686,9.50348836 32.0059871,10.4706094 31.6369976,11.3777284 C30.6892473,13.7026932 29.4112489,15.6529989 27.8379645,17.174313 C26.5571315,18.4126248 25.0825907,19.3636823 23.4308783,20.0194538 C22.4916322,21.4094246 21.3752145,22.7186051 20.0461907,23.8770716 L20,28 L24,28 L24,32 L9,32 L9,28 L13,28 L13,23.8765991 C11.6714487,22.7181326 10.8670015,21.4089521 9.92775545,20.0189813 C8.27651549,19.3636823 6.80102983,18.4121524 5.52066923,17.1738405 C3.9473848,15.6525264 2.66938649,13.7022207 1.72210863,11.3772559 C1.35264664,10.4706094 1.03279272,9.5030159 0.77246848,8.50235031 C0.564114596,7.7034242 0.393084878,6.88087519 0.263158987,6.05832619 C0.0411038274,4.64992953 0.0170084803,3.7291093 0.0165360225,3.69036776 L0,3.00152431 L5.02506101,3.00152431 C5.0094699,2.51016822 5.00663516,2.09865748 5.00852499,1.78258323 C4.57433628,1.72069126 4.23983617,1.3474496 4.23983617,0.895779962 C4.23983617,0.40111666 4.64142529,0 5.13561613,0 L28.2230176,0 C28.7172085,0 29.1187976,0.40111666 29.1187976,0.895779962 C29.1187976,1.3474496 28.7847699,1.72069126 28.3501088,1.78258323 Z M16.5,12.7 L19.7328189,14.9495935 L18.5923243,11.1798374 L21.7308108,8.80040653 L17.7931276,8.72016261 L16.5,5 L15.2068724,8.72016261 L11.2691892,8.80040653 L14.4076757,11.1798374 L13.2671811,14.9495935 L16.5,12.7 Z M2.89805606,10.8816477 C4.22141032,14.1108967 6.15895969,16.4731856 8.68235673,17.946309 C6.09423298,13.0899154 5.3127878,7.70058945 5.09073264,4.34519426 L1.32477163,4.34519426 C1.35878859,4.72788506 1.4169009,5.25373058 1.51658949,5.87737485 C1.7112421,7.09773332 2.10905156,8.95638224 2.89805606,10.8816477 Z M31.8420443,5.87737485 C31.9417328,5.25373058 31.9998452,4.72835752 32.0343346,4.34519426 L28.2683736,4.34519426 C28.0458459,7.70058945 27.2653457,13.0899154 24.6767495,17.9458365 C27.1996741,16.4731856 29.1372234,14.1104242 30.4605777,10.8816477 C31.2495822,8.9568547 31.6473916,7.09773332 31.8420443,5.87737485 Z" id="Combined-Shape" fill-rule="nonzero"></path>
                            <rect id="Rectangle-43" x="7" y="33" width="19" height="2"></rect>
                        </g>
                    </g>
                </g>
            </g>
        </g>
    </g>
</svg>