<?xml version="1.0" encoding="UTF-8"?>
<svg width="20px" height="20px" viewBox="0 0 20 20" version="1.1" xmlns="http://www.w3.org/2000/svg" xmlns:xlink="http://www.w3.org/1999/xlink">
    <!-- Generator: sketchtool 49.3 (51167) - http://www.bohemiancoding.com/sketch -->
    <title>43BDB74F-B4EB-4E72-87CE-F314A816D0E5</title>
    <desc>Created with sketchtool.</desc>
    <defs></defs>
    <g id="Libray" stroke="none" stroke-width="1" fill="none" fill-rule="evenodd">
        <g id="icons/func/social/ok" fill="#FFFFFF" fill-rule="nonzero">
            <g id="if_ok_306187" transform="translate(6.000000, 2.000000)">
                <path d="M8,7.5 C7.5,7.5 6.5,8.5 4.5,8.5 C2.5,8.5 1.5,7.5 1,7.5 C0.448,7.5 0,7.948 0,8.5 C0,9 0.284,9.2405 0.5,9.367 C1.0925,9.7135 3,10.5 3,10.5 L0.875,13.219 C0.875,13.219 0.5,13.6865 0.5,14 C0.5,14.552 0.948,15 1.5,15 C2.0105,15 2.242,14.672 2.242,14.672 C2.242,14.672 4.4965,11.9965 4.5,12 C4.5035,11.9965 6.758,14.672 6.758,14.672 C6.758,14.672 6.9895,15 7.5,15 C8.052,15 8.5,14.552 8.5,14 C8.5,13.6865 8.125,13.219 8.125,13.219 L6,10.5 C6,10.5 7.9075,9.7135 8.5,9.367 C8.716,9.2405 9,9 9,8.5 C9,7.948 8.552,7.5 8,7.5 Z" id="K"></path>
                <path d="M4.5,0 C2.567,0 1,1.567 1,3.5 C1,5.433 2.567,7 4.5,7 C6.4325,7 8,5.433 8,3.5 C8,1.567 6.4325,0 4.5,0 Z M4.5,5.25 C3.5335,5.25 2.75,4.467 2.75,3.5 C2.75,2.5335 3.5335,1.75 4.5,1.75 C5.466,1.75 6.25,2.5335 6.25,3.5 C6.25,4.467 5.466,5.25 4.5,5.25 Z" id="O"></path>
            </g>
        </g>
    </g>
</svg>