<?xml version="1.0" encoding="UTF-8"?>
<svg width="20px" height="20px" viewBox="0 0 20 20" version="1.1" xmlns="http://www.w3.org/2000/svg" xmlns:xlink="http://www.w3.org/1999/xlink">
    <!-- Generator: sketchtool 49.3 (51167) - http://www.bohemiancoding.com/sketch -->
    <title>A3905F7F-44A5-46C9-86DE-0AA4461259DB</title>
    <desc>Created with sketchtool.</desc>
    <defs></defs>
    <g id="Libray" stroke="none" stroke-width="1" fill="none" fill-rule="evenodd">
        <g id="icons/func/social/vk" fill="#FFFFFF" fill-rule="nonzero">
            <path d="M18.9990928,14.8722748 C18.9938837,14.7793134 18.9745994,14.6681198 18.9400561,14.5823049 C18.865813,14.3978732 18.7612359,14.2064919 18.6488452,14.0458351 C18.0632662,13.2087881 17.6747394,12.781233 17.38195,12.4439664 C17.0891342,12.1067841 15.8841171,10.8902946 15.8052962,10.6494502 C15.7264754,10.4085495 15.7011138,10.3016888 15.9249482,9.97649255 C16.1487825,9.65126815 16.6386767,8.83079329 17.0215998,8.24066814 C17.2617456,7.87053863 17.4798972,7.4835275 17.6954181,7.09668518 C17.9495338,6.64060009 18.1885219,6.17345753 18.3922038,5.68906759 C18.4832845,5.47247641 18.5659465,5.27515841 18.5095406,5.03245699 C18.471735,4.86985886 18.3862318,4.72701222 18.2270116,4.68689024 C18.1400876,4.6650004 18.0452448,4.66277766 17.9562951,4.66277766 C17.6240952,4.66277766 16.756908,4.66277766 16.756908,4.66277766 C16.6001608,4.66277766 16.4433873,4.66032982 16.2866138,4.66063932 C16.125894,4.66094882 15.9638324,4.65959829 15.8035862,4.6742853 C15.575595,4.69516223 15.4358695,4.88319534 15.32119,5.07277593 C15.1808857,5.30475752 15.0531833,5.54610841 14.9170884,5.78101615 C14.8240346,5.94153221 14.7329802,6.1033144 14.6435569,6.26616576 C14.5038051,6.5205155 14.3598439,6.77213604 14.2158828,7.02378472 C14.1561357,7.1281694 14.0961782,7.23244154 14.037273,7.33738894 C13.8683449,7.63841636 12.4043187,9.69794582 12.1115292,9.78229765 C11.8187398,9.86664948 11.7173724,9.84256503 11.7173724,9.20418658 C11.7173724,8.56586441 11.7173724,4.94064912 11.7173724,4.94064912 C11.7173724,4.94064912 11.6949048,4.66111763 11.4471295,4.66111763 C11.1993542,4.66111763 10.0501641,4.66111763 10.0501641,4.66111763 L7.68001384,4.66111763 C7.68001384,4.66111763 7.12258522,4.6635936 7.31966365,5.19958503 C7.51674208,5.73554832 8.09955859,5.89814645 8.09955859,6.79239398 C8.09955859,7.68661338 8.09955859,10.2971589 8.09955859,10.2971589 C8.09955859,10.2971589 8.00103252,11.0830264 7.36473044,10.4326339 C6.86331304,9.92013608 6.45018761,9.31419847 6.08515448,8.68592086 C5.70562525,8.03274286 5.39986561,7.35415802 5.127518,6.6431886 C5.04961796,6.43984949 4.97248087,6.23617275 4.89247613,6.03379027 C4.80897233,5.8225168 4.72623149,5.61087756 4.64614782,5.39811288 C4.55314659,5.15096596 4.4536471,4.82793617 4.20287263,4.71415405 C4.07680137,4.6569535 3.93736529,4.6597671 3.80298048,4.65979524 C3.30461488,4.65993592 2.80627559,4.66142713 2.3079363,4.66041423 C2.16171258,4.66013287 2.01548886,4.65996405 1.86926513,4.66035796 C1.52401614,4.66123018 1.09460563,4.65034153 1.01270666,5.11160365 C0.965508864,5.37729221 1.05932567,5.66090342 1.13785712,5.9097385 C1.17347909,6.02284535 1.2173883,6.13156298 1.25721967,6.24278472 C1.45979661,6.80829084 1.70949243,7.3535953 1.9672124,7.89217524 C2.57959988,9.17180201 3.21024559,10.4152177 4.05578072,11.5399275 C4.9102608,12.6765107 5.919094,13.7779801 7.10748403,14.5132309 C7.43800016,14.7177236 7.78545908,14.8902537 8.14738779,15.0213958 C9.54382698,15.5272535 11.0754139,15.4790846 11.5483916,15.1418461 C12.0213957,14.8046077 11.4583107,12.5885012 11.8862479,12.3235441 C12.3142114,12.058559 13.0800049,12.6366982 13.6430636,13.1666404 C14.2061486,13.6965544 14.6340858,14.1542151 14.9494481,14.515538 C15.1469212,14.741808 15.2859363,15.0118577 15.5433669,15.173246 C15.9691994,15.4401444 16.536599,15.4105734 17.0116025,15.4119802 C17.2763995,15.4127961 17.5412754,15.4137528 17.8060987,15.4102076 C17.9850768,15.4078442 18.1641075,15.4140341 18.342954,15.4047774 C18.6367958,15.3895558 19.0211395,15.2654759 18.9990928,14.8722748 Z" id="VK_1_"></path>
        </g>
    </g>
</svg>