<?xml version="1.0" encoding="UTF-8"?>
<svg width="65px" height="75px" viewBox="0 0 65 75" version="1.1" xmlns="http://www.w3.org/2000/svg" xmlns:xlink="http://www.w3.org/1999/xlink">
    <!-- Generator: sketchtool 48.2 (47327) - http://www.bohemiancoding.com/sketch -->
    <title>9D330796-7444-4081-9595-A278EFE92EEB</title>
    <desc>Created with sketchtool.</desc>
    <defs>
        <polygon id="path-1" points="32.5 0 64.9759526 18.75 64.9759526 56.25 32.5 75 0.0240473581 56.25 0.0240473581 18.75"></polygon>
    </defs>
    <g id="Game-start" stroke="none" stroke-width="1" fill="none" fill-rule="evenodd" transform="translate(-708.000000, -122.000000)">
        <g id="Features" transform="translate(15.000000, 122.000000)">
            <g id="Zoom" transform="translate(693.000000, 0.000000)">
                <mask id="mask-2" fill="white">
                    <use xlink:href="#path-1"></use>
                </mask>
                <path stroke="#FFDD71" stroke-width="2" d="M32.5,1.15470054 L1.02404736,19.3273503 L1.02404736,55.6726497 L32.5,73.8452995 L63.9759526,55.6726497 L63.9759526,19.3273503 L32.5,1.15470054 Z"></path>
                <g id="Group" mask="url(#mask-2)">
                    <g transform="translate(38.686533, 49.310889) rotate(-30.000000) translate(-38.686533, -49.310889) translate(16.686533, 14.310889)">
                        <rect id="Rectangle-9" stroke="none" fill="#FFDD71" fill-rule="evenodd" x="20.4089653" y="42.3826859" width="3" height="10"></rect>
                        <rect id="Rectangle-25" stroke="none" fill="#FFDD71" fill-rule="evenodd" x="17.7369108" y="46.7798002" width="9.28807991" height="23.2201998" rx="4.64403996"></rect>
                        <ellipse id="Oval-6" stroke="#FFDD71" stroke-width="2" fill="none" cx="22" cy="21.8660254" rx="20.5" ry="20"></ellipse>
                    </g>
                </g>
                <path d="M24.596,35.132 C24.3173319,35.132 24.0625012,35.1045003 23.8315,35.0495 C23.6004988,34.9944997 23.3896676,34.9211671 23.199,34.8295 C23.0083324,34.7378329 22.8378341,34.6333339 22.6875,34.516 C22.5371659,34.3986661 22.4033339,34.2740007 22.286,34.142 L22.748,33.548 C22.9606677,33.7680011 23.2081653,33.9623325 23.4905,34.131 C23.7728347,34.2996675 24.1229979,34.384 24.541,34.384 C24.9663355,34.384 25.3146653,34.2685012 25.586,34.0375 C25.8573347,33.8064988 25.993,33.493002 25.993,33.097 C25.993,32.8916656 25.9545004,32.7028342 25.8775,32.5305 C25.8004996,32.3581658 25.6740009,32.2096673 25.498,32.085 C25.3219991,31.9603327 25.0910014,31.8650003 24.805,31.799 C24.5189986,31.7329997 24.1670021,31.7 23.749,31.7 L23.749,31.007 C24.1230019,31.007 24.4364987,30.9740003 24.6895,30.908 C24.9425013,30.8419997 25.1478325,30.7503339 25.3055,30.633 C25.4631675,30.5156661 25.5749997,30.3763341 25.641,30.215 C25.7070003,30.0536659 25.74,29.8813343 25.74,29.698 C25.74,29.3533316 25.6318344,29.082001 25.4155,28.884 C25.1991656,28.685999 24.9040019,28.587 24.53,28.587 C24.2366652,28.587 23.9671679,28.6529993 23.7215,28.785 C23.4758321,28.9170007 23.2466677,29.0893323 23.034,29.302 L22.55,28.73 C22.8213347,28.473332 23.120165,28.2625008 23.4465,28.0975 C23.772835,27.9324992 24.1449979,27.85 24.563,27.85 C24.8710015,27.85 25.153332,27.8903329 25.41,27.971 C25.666668,28.0516671 25.8884991,28.1671659 26.0755,28.3175 C26.2625009,28.4678341 26.4073328,28.6529989 26.51,28.873 C26.6126672,29.0930011 26.664,29.3459986 26.664,29.632 C26.664,30.0573355 26.5466678,30.4056653 26.312,30.677 C26.0773322,30.9483347 25.7693352,31.1573326 25.388,31.304 L25.388,31.348 C25.6006677,31.3993336 25.7986657,31.4744995 25.982,31.5735 C26.1653343,31.6725005 26.326666,31.7971659 26.466,31.9475 C26.605334,32.0978341 26.7134996,32.271999 26.7905,32.47 C26.8675004,32.668001 26.906,32.8879988 26.906,33.13 C26.906,33.4380015 26.8455006,33.7166654 26.7245,33.966 C26.6034994,34.2153346 26.438501,34.4261658 26.2295,34.5985 C26.020499,34.7708342 25.7766681,34.9028329 25.498,34.9945 C25.2193319,35.0861671 24.9186683,35.132 24.596,35.132 Z M32.417,35.132 C32.0869984,35.132 31.7808347,35.0843338 31.4985,34.989 C31.2161653,34.8936662 30.9741677,34.7598342 30.7725,34.5875 C30.5708323,34.4151658 30.4113339,34.2116678 30.294,33.977 C30.1766661,33.7423322 30.118,33.4856681 30.118,33.207 C30.118,32.9796655 30.1564996,32.7688343 30.2335,32.5745 C30.3105004,32.3801657 30.4094994,32.2041675 30.5305,32.0465 C30.6515006,31.8888325 30.7908325,31.7495006 30.9485,31.6285 C31.1061675,31.5074994 31.2693325,31.4030004 31.438,31.315 L31.438,31.271 C31.181332,31.0876658 30.954001,30.8658346 30.756,30.6055 C30.557999,30.3451654 30.459,30.0280019 30.459,29.654 C30.459,29.3826653 30.5103328,29.1370011 30.613,28.917 C30.7156672,28.6969989 30.8549991,28.5081675 31.031,28.3505 C31.2070009,28.1928325 31.4159988,28.0700004 31.658,27.982 C31.9000012,27.8939996 32.1639986,27.85 32.45,27.85 C32.7580015,27.85 33.0329988,27.8958329 33.275,27.9875 C33.5170012,28.0791671 33.7241658,28.2074992 33.8965,28.3725 C34.0688342,28.5375008 34.2008329,28.7354988 34.2925,28.9665 C34.3841671,29.1975012 34.43,29.4486653 34.43,29.72 C34.43,29.9033343 34.3988336,30.0793325 34.3365,30.248 C34.2741664,30.4166675 34.1971671,30.5743326 34.1055,30.721 C34.0138329,30.8676674 33.9111672,30.9996661 33.7975,31.117 C33.6838328,31.2343339 33.5720005,31.3333329 33.462,31.414 L33.462,31.458 C33.6160008,31.5460004 33.7663326,31.6468328 33.913,31.7605 C34.0596674,31.8741672 34.1898328,32.0024993 34.3035,32.1455 C34.4171672,32.2885007 34.508833,32.4516658 34.5785,32.635 C34.648167,32.8183342 34.683,33.0273322 34.683,33.262 C34.683,33.5260013 34.6280005,33.7716655 34.518,33.999 C34.4079994,34.2263345 34.254001,34.4243325 34.056,34.593 C33.857999,34.7616675 33.6196681,34.8936662 33.341,34.989 C33.0623319,35.0843338 32.754335,35.132 32.417,35.132 Z M32.912,31.172 C33.1466678,30.9593323 33.328166,30.7356678 33.4565,30.501 C33.584834,30.2663322 33.649,30.0206679 33.649,29.764 C33.649,29.4119982 33.5426677,29.1168345 33.33,28.8785 C33.1173323,28.6401655 32.8166686,28.521 32.428,28.521 C32.0979983,28.521 31.8266677,28.6236656 31.614,28.829 C31.4013323,29.0343344 31.295,29.3093316 31.295,29.654 C31.295,29.8666677 31.3389996,30.0481659 31.427,30.1985 C31.5150004,30.3488341 31.6341659,30.4826661 31.7845,30.6 C31.9348341,30.7173339 32.1071657,30.8218329 32.3015,30.9135 C32.4958343,31.0051671 32.6993323,31.0913329 32.912,31.172 Z M32.439,34.461 C32.8496687,34.461 33.1814987,34.3473345 33.4345,34.12 C33.6875013,33.8926655 33.814,33.5956685 33.814,33.229 C33.814,33.0016655 33.7626672,32.8073341 33.66,32.646 C33.5573328,32.4846659 33.4180009,32.3435006 33.242,32.2225 C33.0659991,32.1014994 32.8625012,31.9915005 32.6315,31.8925 C32.4004988,31.7934995 32.1603346,31.6926672 31.911,31.59 C31.6323319,31.7806676 31.3995009,32.0024987 31.2125,32.2555 C31.0254991,32.5085013 30.932,32.7963317 30.932,33.119 C30.932,33.317001 30.9704996,33.4966659 31.0475,33.658 C31.1245004,33.8193341 31.2308327,33.9604994 31.3665,34.0815 C31.5021673,34.2025006 31.6616657,34.2959997 31.845,34.362 C32.0283343,34.4280003 32.2263323,34.461 32.439,34.461 Z M37.774,35 L37.774,34.461 C38.3020026,33.9329974 38.7713313,33.4563355 39.182,33.031 C39.5926687,32.6056645 39.9373319,32.2115018 40.216,31.8485 C40.4946681,31.4854982 40.7073326,31.1518349 40.854,30.8475 C41.0006674,30.5431651 41.074,30.2480014 41.074,29.962 C41.074,29.5586646 40.9640011,29.228668 40.744,28.972 C40.5239989,28.7153321 40.1903356,28.587 39.743,28.587 C39.4496652,28.587 39.1783346,28.6694992 38.929,28.8345 C38.6796654,28.9995008 38.4523344,29.1993322 38.247,29.434 L37.73,28.917 C38.0233348,28.5943317 38.3349983,28.3358343 38.665,28.1415 C38.9950016,27.9471657 39.3909977,27.85 39.853,27.85 C40.5056699,27.85 41.0189981,28.0388314 41.393,28.4165 C41.7670019,28.7941686 41.954,29.2946635 41.954,29.918 C41.954,30.2480016 41.8825007,30.5798317 41.7395,30.9135 C41.5964993,31.2471683 41.3985013,31.5918316 41.1455,31.9475 C40.8924987,32.3031684 40.5918351,32.6734981 40.2435,33.0585 C39.8951649,33.4435019 39.5120021,33.8523312 39.094,34.285 C39.2846676,34.2703333 39.4826656,34.2556667 39.688,34.241 C39.8933344,34.2263333 40.0876657,34.219 40.271,34.219 L42.306,34.219 L42.306,35 L37.774,35 Z M24.739,49.132 C24.0276631,49.132 23.474002,48.8166698 23.078,48.186 C22.681998,47.5553302 22.484,46.6496726 22.484,45.469 C22.484,44.2883274 22.681998,43.3900031 23.078,42.774 C23.474002,42.1579969 24.0276631,41.85 24.739,41.85 C25.4430035,41.85 25.992998,42.1579969 26.389,42.774 C26.785002,43.3900031 26.983,44.2883274 26.983,45.469 C26.983,46.6496726 26.785002,47.5553302 26.389,48.186 C25.992998,48.8166698 25.4430035,49.132 24.739,49.132 Z M24.739,48.406 C24.9443344,48.406 25.1294992,48.3491672 25.2945,48.2355 C25.4595008,48.1218328 25.6024994,47.9458345 25.7235,47.7075 C25.8445006,47.4691655 25.9379997,47.1648352 26.004,46.7945 C26.0700003,46.4241648 26.103,45.9823359 26.103,45.469 C26.103,44.9556641 26.0700003,44.5156685 26.004,44.149 C25.9379997,43.7823315 25.8445006,43.4835012 25.7235,43.2525 C25.6024994,43.0214988 25.4595008,42.8510006 25.2945,42.741 C25.1294992,42.6309995 24.9443344,42.576 24.739,42.576 C24.5336656,42.576 24.3466675,42.6309995 24.178,42.741 C24.0093325,42.8510006 23.8645006,43.0214988 23.7435,43.2525 C23.6224994,43.4835012 23.5290003,43.7823315 23.463,44.149 C23.3969997,44.5156685 23.364,44.9556641 23.364,45.469 C23.364,46.4956718 23.4904987,47.241831 23.7435,47.7075 C23.9965013,48.173169 24.3283313,48.406 24.739,48.406 Z M32.406,49.132 C31.6946631,49.132 31.141002,48.8166698 30.745,48.186 C30.348998,47.5553302 30.151,46.6496726 30.151,45.469 C30.151,44.2883274 30.348998,43.3900031 30.745,42.774 C31.141002,42.1579969 31.6946631,41.85 32.406,41.85 C33.1100035,41.85 33.659998,42.1579969 34.056,42.774 C34.452002,43.3900031 34.65,44.2883274 34.65,45.469 C34.65,46.6496726 34.452002,47.5553302 34.056,48.186 C33.659998,48.8166698 33.1100035,49.132 32.406,49.132 Z M32.406,48.406 C32.6113344,48.406 32.7964992,48.3491672 32.9615,48.2355 C33.1265008,48.1218328 33.2694994,47.9458345 33.3905,47.7075 C33.5115006,47.4691655 33.6049997,47.1648352 33.671,46.7945 C33.7370003,46.4241648 33.77,45.9823359 33.77,45.469 C33.77,44.9556641 33.7370003,44.5156685 33.671,44.149 C33.6049997,43.7823315 33.5115006,43.4835012 33.3905,43.2525 C33.2694994,43.0214988 33.1265008,42.8510006 32.9615,42.741 C32.7964992,42.6309995 32.6113344,42.576 32.406,42.576 C32.2006656,42.576 32.0136675,42.6309995 31.845,42.741 C31.6763325,42.8510006 31.5315006,43.0214988 31.4105,43.2525 C31.2894994,43.4835012 31.1960003,43.7823315 31.13,44.149 C31.0639997,44.5156685 31.031,44.9556641 31.031,45.469 C31.031,46.4956718 31.1574987,47.241831 31.4105,47.7075 C31.6635013,48.173169 31.9953313,48.406 32.406,48.406 Z M40.678,49 L40.678,47.064 L37.521,47.064 L37.521,46.47 L40.524,41.982 L41.536,41.982 L41.536,46.338 L42.493,46.338 L42.493,47.064 L41.536,47.064 L41.536,49 L40.678,49 Z M38.478,46.338 L40.678,46.338 L40.678,44.303 C40.678,44.1123324 40.6834999,43.8868346 40.6945,43.6265 C40.7055001,43.3661654 40.7183333,43.1406676 40.733,42.95 L40.689,42.95 C40.6009996,43.1186675 40.5093338,43.2836659 40.414,43.445 C40.3186662,43.6063341 40.2196672,43.7713325 40.117,43.94 L38.478,46.338 Z" id="3-8-2-0-0-4" fill="#FFDD71" mask="url(#mask-2)"></path>
            </g>
        </g>
    </g>
</svg>