<svg xmlns="http://www.w3.org/2000/svg" xmlns:xlink="http://www.w3.org/1999/xlink" width="65" height="75" viewBox="0 0 65 75">
    <defs>
        <path id="a" d="M32.5 0l32.476 18.75v37.5L32.5 75 .024 56.25v-37.5z"/>
    </defs>
    <g fill="none" fill-rule="evenodd">
        <mask id="b" fill="#fff">
            <use xlink:href="#a"/>
        </mask>
        <path stroke="#FFDD71" stroke-width="2" d="M32.5 1.155L1.024 19.327v36.346L32.5 73.845l31.476-18.172V19.327L32.5 1.155z"/>
        <path stroke="#FFDD71" stroke-width="2" d="M64.903 30.246c-5.397-1.823-10.465-.004-15.205 5.457-3.682 0-6.518-.51-7.902-1.285-5.126-2.87-10.308-1.6-14.389 1.285-1.123.793-2.863 2.211-5.22 4.252V21.624c.267-.895.903-.895 1.909 0 1.508 1.342 10.587 2.62 10.587-2.331 0-4.952-3.978-7.287-12.496-5.896-3.454.449-5.698 2.947-6.731 7.494-4.919 13.245-7.587 21.308-8.005 24.188-.626 4.32 1.539 9.857 3.047 10.222 1.509.365 14.349 4.67 21.677 4.804 4.885.09 11.604-2.226 20.156-6.95L58.926 64 66 62.79V30.245h-1.097z" mask="url(#b)"/>
        <text fill="#FFDD71" font-family=".HelveticaNeueDeskInterface-Regular, .Helvetica Neue DeskInterface" font-size="22" mask="url(#b)">
            <tspan x="29.785" y="54">₽</tspan>
        </text>
        <path stroke="#FFDD71" d="M10.551 47.032c-.236 3.632.976 5.448 3.635 5.448M60.956 33.18c-3.537 0-5.786 1.31-6.748 3.93" mask="url(#b)"/>
    </g>
</svg>
