<?xml version="1.0" encoding="UTF-8"?>
<svg width="30px" height="30px" viewBox="0 0 30 30" version="1.1" xmlns="http://www.w3.org/2000/svg" xmlns:xlink="http://www.w3.org/1999/xlink">
    <!-- Generator: sketchtool 49.3 (51167) - http://www.bohemiancoding.com/sketch -->
    <title>03752463-FB9C-4243-8D1C-31ACF3D386E7</title>
    <desc>Created with sketchtool.</desc>
    <defs></defs>
    <g id="Libray" stroke="none" stroke-width="1" fill="none" fill-rule="evenodd">
        <g id="icons/payment/card" fill="#FFFFFF">
            <path d="M30,9 L0,9 L1.03584031e-16,8.8458278 C-6.01853049e-17,7.50854969 0.139238417,7.02362033 0.400699056,6.53473144 C0.662159695,6.04584256 1.04584256,5.66215969 1.53473144,5.40069906 C2.02362033,5.13923842 2.50854969,5 3.8458278,5 L26.1541722,5 C27.4914503,5 27.9763797,5.13923842 28.4652686,5.40069906 C28.9541574,5.66215969 29.3378403,6.04584256 29.5993009,6.53473144 C29.8607616,7.02362033 30,7.50854969 30,8.8458278 L30,9 Z M30,13 L30,21.1541722 C30,22.4914503 29.8607616,22.9763797 29.5993009,23.4652686 C29.3378403,23.9541574 28.9541574,24.3378403 28.4652686,24.5993009 C27.9763797,24.8607616 27.4914503,25 26.1541722,25 L3.8458278,25 C2.50854969,25 2.02362033,24.8607616 1.53473144,24.5993009 C1.04584256,24.3378403 0.662159695,23.9541574 0.400699056,23.4652686 C0.139238417,22.9763797 6.01853049e-17,22.4914503 -1.03584031e-16,21.1541722 L3.36630264e-17,13 L30,13 Z M3,18 L3,19 L6,19 L6,18 L3,18 Z M3,21 L3,22 L13,22 L13,21 L3,21 Z M8,18 L8,19 L11,19 L11,18 L8,18 Z M23.8744078,21.7816913 C24.2219802,21.9224718 24.6019363,22 25,22 C26.6568542,22 28,20.6568542 28,19 C28,17.3431458 26.6568542,16 25,16 C24.6019363,16 24.2219802,16.0775282 23.8744078,16.2183087 C24.5711968,16.9381752 25,17.9190114 25,19 C25,20.0809886 24.5711968,21.0618248 23.8744078,21.7816913 Z M21,22 C22.6568542,22 24,20.6568542 24,19 C24,17.3431458 22.6568542,16 21,16 C19.3431458,16 18,17.3431458 18,19 C18,20.6568542 19.3431458,22 21,22 Z" id="Combined-Shape"></path>
        </g>
    </g>
</svg>