<?xml version="1.0" encoding="UTF-8"?>
<svg width="30px" height="30px" viewBox="0 0 30 30" version="1.1" xmlns="http://www.w3.org/2000/svg" xmlns:xlink="http://www.w3.org/1999/xlink">
    <!-- Generator: sketchtool 49.3 (51167) - http://www.bohemiancoding.com/sketch -->
    <title>B076B920-7F2A-48E8-8CEC-1F552385C0E0</title>
    <desc>Created with sketchtool.</desc>
    <defs></defs>
    <g id="Libray" stroke="none" stroke-width="1" fill="none" fill-rule="evenodd">
        <g id="icons/payment/megaphone" fill="#33EB8B">
            <path d="M16,14 L14,14 C12.8954305,14 12,14.8954305 12,16 L12,29.6999457 C5.15327904,28.3101347 0,22.2568737 0,15 C0,6.71572875 6.71572875,0 15,0 C15.3360286,0 15.6694764,0.0110493539 16,0.0328045547 L16,14 Z M18,14 L18,0.300054347 C24.846721,1.68986535 30,7.74312627 30,15 C30,23.2842712 23.2842712,30 15,30 C14.6639714,30 14.3305236,29.9889506 14,29.9671954 L14,16 L16,16 C17.1045695,16 18,15.1045695 18,14 Z M12.5,10 C13.3284271,10 14,9.32842712 14,8.5 C14,7.67157288 13.3284271,7 12.5,7 C11.6715729,7 11,7.67157288 11,8.5 C11,9.32842712 11.6715729,10 12.5,10 Z M20.5,26 C21.3284271,26 22,25.3284271 22,24.5 C22,23.6715729 21.3284271,23 20.5,23 C19.6715729,23 19,23.6715729 19,24.5 C19,25.3284271 19.6715729,26 20.5,26 Z M20.5,23 C21.3284271,23 22,22.3284271 22,21.5 C22,20.6715729 21.3284271,20 20.5,20 C19.6715729,20 19,20.6715729 19,21.5 C19,22.3284271 19.6715729,23 20.5,23 Z M24.5,23 C25.3284271,23 26,22.3284271 26,21.5 C26,20.6715729 25.3284271,20 24.5,20 C23.6715729,20 23,20.6715729 23,21.5 C23,22.3284271 23.6715729,23 24.5,23 Z" id="Combined-Shape"></path>
        </g>
    </g>
</svg>