<?xml version="1.0" encoding="UTF-8"?>
<svg width="30px" height="30px" viewBox="0 0 30 30" version="1.1" xmlns="http://www.w3.org/2000/svg" xmlns:xlink="http://www.w3.org/1999/xlink">
    <!-- Generator: sketchtool 49.3 (51167) - http://www.bohemiancoding.com/sketch -->
    <title>4B4EE686-5F13-4309-8518-06449DA8B988</title>
    <desc>Created with sketchtool.</desc>
    <defs></defs>
    <g id="Libray" stroke="none" stroke-width="1" fill="none" fill-rule="evenodd">
        <g id="icons/payment/payeer">
            <circle id="Oval-5" fill="#019ADE" cx="15" cy="15" r="15"></circle>
            <path d="M14.0183716,14.2380952 L15.4525453,14.2380952 C16.0949388,14.2380952 16.6140746,14.0438862 17.0099682,13.6554622 C17.4058619,13.2670382 17.6038058,12.6620022 17.6038058,11.8403361 C17.6038058,11.0336094 17.4320054,10.4211039 17.0883996,10.0028011 C16.7447938,9.58449838 16.1696361,9.37535014 15.3629094,9.37535014 L14.0183716,9.37535014 L14.0183716,14.2380952 Z M11,7 L16.4385396,7 C17.2602058,7 17.9511419,7.13818723 18.5113688,7.41456583 C19.0715957,7.69094443 19.5235053,8.05321905 19.8671111,8.50140056 C20.2107169,8.94958207 20.457213,9.46124829 20.6066069,10.0364146 C20.7560007,10.6115808 20.8306965,11.1979429 20.8306965,11.7955182 C20.8306965,12.6171843 20.7074484,13.334264 20.4609486,13.9467787 C20.2144488,14.5592934 19.8708481,15.0597553 19.4301363,15.4481793 C18.9894245,15.8366032 18.4553495,16.1279169 17.8278954,16.3221289 C17.2004413,16.5163408 16.5057703,16.6134454 15.7438618,16.6134454 L14.0183716,16.6134454 L14.0183716,23 L11,23 L11,7 Z" id="P" fill="#FFFFFF"></path>
        </g>
    </g>
</svg>