<?xml version="1.0" encoding="UTF-8"?>
<svg width="30px" height="30px" viewBox="0 0 30 30" version="1.1" xmlns="http://www.w3.org/2000/svg" xmlns:xlink="http://www.w3.org/1999/xlink">
    <!-- Generator: sketchtool 49.3 (51167) - http://www.bohemiancoding.com/sketch -->
    <title>9C91301D-5BB3-4226-B87E-6C7F22F3636D</title>
    <desc>Created with sketchtool.</desc>
    <defs></defs>
    <g id="Libray" stroke="none" stroke-width="1" fill="none" fill-rule="evenodd">
        <g id="icons/payment/Qiwi" fill="#F68E1F">
            <g id="if_Qiwi_payments_pay_online_send_money_credit_card_ecommerce_2942638" transform="translate(1.000000, 1.000000)">
                <path d="M27.9536375,28.6789101 C27.8200257,28.3161001 27.7579232,28.3765168 27.5835317,28.0557812 C27.1603166,27.4997952 26.6674776,27.0139336 26.168505,26.5345837 C25.9941132,26.4733084 25.9198476,26.3113545 25.7507605,26.2435676 C25.6416828,26.1051556 25.4692802,26.0303561 25.3328502,25.9203276 C25.0536908,25.7047787 24.7458528,25.5186152 24.4333732,25.3367927 C23.8412369,24.9509419 23.1017297,24.7143555 22.3759815,24.4634106 C21.5882346,24.2747428 20.7600397,24.1273145 19.9018399,24.0102738 C19.0499394,23.8852188 18.1938948,23.7658402 17.5555082,23.4274069 C17.1823564,23.3178792 16.9093305,23.1073393 16.590883,22.9420462 C16.2958094,22.7426926 15.9682449,22.5768986 15.7234,22.3267884 C15.4153963,22.140458 15.2265823,21.8345823 14.9838928,21.5824685 C14.8998466,21.418678 14.7596037,21.3118219 14.6949528,21.1291648 C14.6094147,21.0967741 14.5888589,20.9985999 14.5341543,20.935154 C14.4721558,20.8675342 14.4751396,20.7354666 14.3728585,20.7087524 C14.3249504,21.0540314 14.3362229,21.4607525 14.3728585,21.809371 C14.416125,21.9601382 14.4310442,22.1389554 14.469835,22.2947316 C14.4963584,22.4306393 14.6168745,22.6418472 14.5661482,22.7477016 C11.9855811,22.6169699 10.1010894,21.7856622 8.45928705,20.7087527 C7.64949272,20.1644542 6.95408066,19.5057861 6.30641076,18.798532 C6.02128347,18.4051678 5.71642957,18.0328409 5.46992709,17.6005744 C5.21066021,17.1719812 4.99747792,16.6963042 4.76407146,16.2409967 C4.38478606,15.2629291 4.02771376,14.263156 3.89575977,13.0366478 C3.72053904,11.8942888 3.76678931,10.4382067 4.02373536,9.378494 C4.11789373,8.79262163 4.30819941,8.3045897 4.47430279,7.79218102 C4.58570126,7.55960184 4.69643675,7.32585405 4.79507082,7.0802519 C4.93614244,6.8770582 5.00974502,6.60557695 5.18098707,6.43260333 C5.65658599,5.54135611 6.35647375,4.87534182 7.07758055,4.23136651 C7.85339172,3.65317466 8.74143055,3.18768229 9.80916553,2.90434668 C10.8313135,2.6685954 12.231918,2.62969306 13.3452402,2.87178883 C15.5942641,3.33577829 17.2960756,4.35241453 18.7127599,5.6558925 C20.1534811,6.93365852 21.2606701,8.54902297 22.0228879,10.511503 C22.8106348,12.3823205 23.080511,15.2851349 22.3759815,17.4063964 C22.0886994,17.2427728 21.7997593,17.0804852 21.5078355,16.9207017 C21.1590519,16.8191883 20.8223697,16.7058208 20.4158977,16.6619095 C19.9260425,16.6542292 19.4497806,16.6610746 19.1298415,16.8241973 C19.7682281,16.7592487 20.2817886,16.9332241 20.6730097,17.0831565 C20.9079081,17.1728155 21.0391994,17.2369292 21.2188958,17.3416147 C21.5761338,17.5493163 21.8907682,17.7448298 22.1508638,18.02132 C22.9046275,18.6873343 23.4430536,19.5690646 23.6941977,20.7408091 C23.7624956,20.7017396 23.775923,20.6725213 23.7905109,20.6438036 C23.8344404,20.5910434 23.8815196,20.5411215 23.9193154,20.4818497 C24.0043562,20.3840095 24.0860818,20.2828301 24.1436046,20.1581089 C24.3153439,19.9529117 24.4593996,19.7196647 24.5935087,19.4782364 C24.8998548,19.0314441 25.1342559,18.5123569 25.3971695,18.0213195 C25.8560254,16.9727934 26.2276853,15.836946 26.458108,14.5580114 C26.9176271,11.709126 26.3702491,9.00499737 25.3971695,7.0153025 C24.4023739,5.00674077 23.0132076,3.39538331 21.2188955,2.19208273 C19.4080063,0.995293781 17.2853005,0.111559927 14.3728585,0.0230697621 C14.3597625,-0.0320279392 14.3317472,0.0297482548 14.2765452,0.0230697621 C12.738516,-0.0293564327 11.4934054,0.189865486 10.259567,0.508764468 C9.69163352,0.702775309 9.09021388,0.863226274 8.58809157,1.12352117 C8.00573583,1.31419249 7.5492008,1.63108798 7.013261,1.86817502 C6.81897665,2.05016517 6.53384963,2.14132684 6.33823905,2.32164642 C6.08046408,2.45054182 5.89231328,2.64956139 5.6315545,2.77478354 C5.22044081,3.13842821 4.77534396,3.46684405 4.37732629,3.8430111 C3.97831402,4.20665604 3.63549829,4.62790304 3.25256584,5.00824394 C3.19587201,5.14481958 3.09342494,5.23614812 2.99545411,5.33198479 C2.92732183,5.45720693 2.84377298,5.5675692 2.73850806,5.6558925 C2.69673349,5.80766175 2.56328733,5.86776819 2.51322434,6.01202407 C2.40248885,6.09416975 2.38044116,6.26564047 2.25694127,6.33559778 C2.1455428,6.60223743 1.96120472,6.7939105 1.83836808,7.04786091 C1.69265482,7.28945608 1.57528847,7.55926784 1.42062354,7.79218075 C1.19069818,8.33748101 0.937399173,8.85940656 0.74643025,9.44294143 C0.550819679,10.0127853 0.379246001,10.6061708 0.264034806,11.2558228 C0.138877338,11.8650699 0.024494796,12.6539689 0.038751093,13.2954398 C-0.0408193596,13.532694 0.024494796,13.9581148 0.038751093,14.2341042 C0.0410719171,14.2800191 0.00625982711,14.3040615 0.00625982711,14.3311095 C0.00543090316,14.6353157 0.091963828,15.010481 0.103402001,15.2053265 C0.171534009,15.9134155 0.2920501,16.5690783 0.488655271,17.1476042 C0.612984086,17.7884071 0.87904749,18.286791 1.06703261,18.8629794 C1.35597263,19.348841 1.55920865,19.9211892 1.90285331,20.3521202 C2.16145694,20.8576836 2.52317089,21.2597297 2.86731257,21.6794741 C3.24361417,22.0770124 3.6089749,22.486739 4.05639257,22.8124833 C4.87464128,23.5312578 5.83760891,24.104775 6.88429081,24.592974 C8.84536925,25.5476669 11.7747197,26.1801219 14.4053498,26.0164983 C15.0787141,25.9288427 15.7567201,25.8455284 16.3655993,25.6927574 C16.9313779,25.4867253 17.5813683,25.3626721 18.2621925,25.272679 C19.8129862,25.1735031 21.1507632,25.313084 22.34349,25.6607004 C23.5552807,25.9844413 24.5956633,26.4786508 25.4934825,27.1181183 C25.9714022,27.401955 26.3719064,27.7655997 26.7790414,28.1215644 C27.1908181,28.4837067 27.3628417,28.5096313 27.7388119,28.9075036 C27.9536375,29.1681159 28.0708382,28.8086402 27.9536375,28.6789101 Z" id="Shape"></path>
                <path d="M22.1080488,20.0306144 C22.0721601,20.0306144 22.0655682,20.0662739 22.037187,20.0746245 C21.9740157,20.2438934 22.0033125,20.5102096 22.037187,20.6873772 C22.2256026,21.1699061 22.2957318,21.7982314 22.7121138,22 C22.917375,21.9185253 22.896501,21.5565158 22.8889938,21.2123361 C22.7967087,20.7864561 22.666887,20.4063913 22.4625411,20.1184086 C22.3125777,20.0527321 22.2127851,19.9475601 22.1080488,20.0306144 Z" id="Shape"></path>
                <path d="M19.8878181,21.0247839 C19.8878181,21.0038231 19.853813,20.9814911 19.8459493,21.0247839 C19.4395875,20.98012 19.3003789,21.1809119 19.1042114,21.3286164 C18.7552333,22.1803663 19.315256,23.0150733 20.2988557,22.9997934 C20.6937407,22.9081145 20.9347525,22.6746082 21,22.2781176 C20.9534551,21.5611435 20.6180793,21.11039 19.8878181,21.0247839 Z" id="Shape"></path>
            </g>
        </g>
    </g>
</svg>