<?xml version="1.0" encoding="UTF-8"?>
<svg width="30px" height="20px" viewBox="0 0 30 20" version="1.1" xmlns="http://www.w3.org/2000/svg" xmlns:xlink="http://www.w3.org/1999/xlink" style="background: #D8D8D8;">
    <!-- Generator: Sketch 49.3 (51167) - http://www.bohemiancoding.com/sketch -->
    <title>icons/flag/belarus</title>
    <desc>Created with Sketch.</desc>
    <defs></defs>
    <g id="icons/flag/belarus" stroke="none" stroke-width="1" fill="#D8D8D8" fill-rule="evenodd">
        <path d="M0,0 L2,0 L2,2 L0,2 L0,0 Z M0,4 L2,4 L2,6 L0,6 L0,4 Z M0,8 L2,8 L2,10 L0,10 L0,8 Z M0,12 L2,12 L2,14 L0,14 L0,12 Z M0,16 L2,16 L2,18 L0,18 L0,16 Z M2,2 L4,2 L4,4 L2,4 L2,2 Z M2,6 L4,6 L4,8 L2,8 L2,6 Z M2,10 L4,10 L4,12 L2,12 L2,10 Z M2,14 L4,14 L4,16 L2,16 L2,14 Z M2,18 L4,18 L4,20 L2,20 L2,18 Z" id="Combined-Shape" fill="#BA2025"></path>
        <rect id="Rectangle-8" fill="#BA2025" x="4" y="0" width="26" height="13"></rect>
        <rect id="Rectangle-8-Copy" fill="#409B46" x="4" y="13" width="26" height="7"></rect>
    </g>
</svg>