<?xml version="1.0" encoding="UTF-8"?>
<svg width="30px" height="20px" viewBox="0 0 30 20" version="1.1" xmlns="http://www.w3.org/2000/svg" xmlns:xlink="http://www.w3.org/1999/xlink">
    <!-- Generator: Sketch 49.3 (51167) - http://www.bohemiancoding.com/sketch -->
    <title>icons/flag/georgia</title>
    <desc>Created with Sketch.</desc>
    <defs></defs>
    <g id="icons/flag/georgia" stroke="none" stroke-width="1" fill="none" fill-rule="evenodd">
        <rect id="Rectangle-2" fill="#F2F2F2" x="0" y="0" width="30" height="20"></rect>
        <rect id="Rectangle-11" fill="#D51F3A" x="12" y="0" width="6" height="20"></rect>
        <rect id="Rectangle-11-Copy" fill="#D51F3A" transform="translate(15.000000, 10.000000) rotate(90.000000) translate(-15.000000, -10.000000) " x="12" y="-5" width="6" height="30"></rect>
        <path d="M7,3 L8,3 L8,4 L7,4 L7,5 L6,5 L6,4 L5,4 L5,3 L6,3 L6,2 L7,2 L7,3 Z" id="Combined-Shape" fill="#D51F3A"></path>
        <path d="M7,16 L8,16 L8,17 L7,17 L7,18 L6,18 L6,17 L5,17 L5,16 L6,16 L6,15 L7,15 L7,16 Z" id="Combined-Shape-Copy-2" fill="#D51F3A"></path>
        <path d="M24,3 L25,3 L25,4 L24,4 L24,5 L23,5 L23,4 L22,4 L22,3 L23,3 L23,2 L24,2 L24,3 Z" id="Combined-Shape-Copy" fill="#D51F3A"></path>
        <path d="M24,16 L25,16 L25,17 L24,17 L24,18 L23,18 L23,17 L22,17 L22,16 L23,16 L23,15 L24,15 L24,16 Z" id="Combined-Shape-Copy-3" fill="#D51F3A"></path>
    </g>
</svg>