<?xml version="1.0" encoding="UTF-8"?>
<svg width="30px" height="20px" viewBox="0 0 30 20" version="1.1" xmlns="http://www.w3.org/2000/svg" xmlns:xlink="http://www.w3.org/1999/xlink" style="background: #FFFFFF;">
    <!-- Generator: Sketch 49.3 (51167) - http://www.bohemiancoding.com/sketch -->
    <title>icons/flag/kyrgyztan</title>
    <desc>Created with Sketch.</desc>
    <defs></defs>
    <g id="icons/flag/kyrgyztan" stroke="none" stroke-width="1" fill="none" fill-rule="evenodd">
        <rect id="Rectangle-16" fill="#D51F3A" x="0" y="0" width="30" height="20"></rect>
        <g id="if_144_Ensign_Flag_Nation_kyrgyzstan_2634334" transform="translate(9.000000, 4.000000)" fill="#F6EC32" fill-rule="nonzero">
            <path d="M12.9927778,6.52166667 C12.155,6.73111111 11.2522222,6.05944444 10.4794444,6.20388889 C10.4794444,6.19666667 10.4794444,6.18222222 10.4794444,6.175 C11.2233333,5.82111111 12.4655556,6.21833333 12.9133333,5.51055556 C12.1261111,5.85 11.1294444,5.33 10.3927778,5.59 C10.3927778,5.58277778 10.3855556,5.56833333 10.3855556,5.56111111 C11.0644444,5.09888889 12.3427778,5.29388889 12.6822222,4.52833333 C11.96,4.98333333 10.9055556,4.63666667 10.205,4.99777778 C10.1977778,4.99055556 10.1977778,4.97611111 10.1905556,4.96888889 C10.7972222,4.41277778 12.0755556,4.39833333 12.2922222,3.59666667 C11.6494444,4.15277778 10.5588889,3.97944444 9.93055556,4.44166667 C9.92333333,4.43444444 9.91611111,4.42 9.90888889,4.41277778 C10.4216667,3.77 11.6783333,3.56055556 11.7577778,2.73722222 C11.2088889,3.38722222 10.1111111,3.38722222 9.56222222,3.93611111 C9.555,3.92888889 9.54777778,3.91444444 9.54055556,3.90722222 C9.95222222,3.19944444 11.1511111,2.78777778 11.1077778,1.96444444 C10.6744444,2.69388889 9.59111111,2.86722222 9.12888889,3.48833333 C9.12166667,3.48111111 9.10722222,3.47388889 9.1,3.45944444 C9.39611111,2.70111111 10.5155556,2.10888889 10.3422222,1.3 C10.0244444,2.08722222 8.98444444,2.42666667 8.62333333,3.10555556 C8.60888889,3.09833333 8.60166667,3.09111111 8.58722222,3.08388889 C8.76777778,2.28944444 9.77166667,1.53111111 9.47555556,0.765555556 C9.28777778,1.58888889 8.32,2.08722222 8.06722222,2.81666667 C8.05277778,2.80944444 8.03833333,2.80944444 8.02388889,2.80222222 C8.08166667,1.99333333 8.94833333,1.09055556 8.53666667,0.375555556 C8.47888889,1.21333333 7.59777778,1.86333333 7.46777778,2.62166667 C7.45333333,2.62166667 7.43888889,2.61444444 7.42444444,2.61444444 C7.35222222,1.80555556 8.06722222,0.78 7.54722222,0.144444444 C7.61944444,0.982222222 6.85388889,1.755 6.83944444,2.52777778 C6.825,2.52777778 6.81055556,2.52777778 6.79611111,2.52777778 C6.60111111,1.74055556 7.15,0.613888889 6.53611111,0.065 C6.73833333,0.881111111 6.10277778,1.76944444 6.21111111,2.52777778 C6.19666667,2.52777778 6.18222222,2.52777778 6.16777778,2.52777778 C5.85,1.77666667 6.21111111,0.577777778 5.525,0.137222222 C5.85722222,0.917222222 5.36611111,1.885 5.59,2.62166667 C5.57555556,2.62166667 5.56111111,2.62888889 5.54666667,2.62888889 C5.11333333,1.94277778 5.28666667,0.700555556 4.53555556,0.368333333 C4.98333333,1.08333333 4.65111111,2.12333333 4.99055556,2.81666667 C4.97611111,2.82388889 4.96888889,2.83111111 4.95444444,2.83111111 C4.41277778,2.21722222 4.39833333,0.960555556 3.59666667,0.751111111 C4.15277778,1.39388889 3.97944444,2.47 4.43444444,3.10555556 C4.42,3.11277778 4.41277778,3.12 4.39833333,3.12722222 C3.77,2.60722222 3.55333333,1.365 2.73,1.28555556 C3.38,1.83444444 3.38,2.93222222 3.92888889,3.48111111 C3.92166667,3.48833333 3.90722222,3.49555556 3.9,3.50277778 C3.19222222,3.09111111 2.78055556,1.89222222 1.95722222,1.93555556 C2.68666667,2.37611111 2.86,3.46666667 3.48833333,3.92166667 C3.48111111,3.92888889 3.47388889,3.94333333 3.46666667,3.95055556 C2.70111111,3.66166667 2.10888889,2.52777778 1.3,2.70833333 C2.09444444,3.02611111 2.43388889,4.08777778 3.13444444,4.43444444 C3.12722222,4.44166667 3.12,4.45611111 3.12,4.46333333 C2.31833333,4.30444444 1.55277778,3.27166667 0.772777778,3.575 C1.61055556,3.77 2.10888889,4.76666667 2.86,4.99777778 C2.86,5.005 2.85277778,5.01944444 2.84555556,5.02666667 C2.02222222,4.99777778 1.105,4.095 0.382777778,4.51388889 C1.24222222,4.57166667 1.89222222,5.48888889 2.67222222,5.59 C2.67222222,5.59722222 2.665,5.61166667 2.665,5.61888889 C1.84888889,5.72722222 0.787222222,4.96888889 0.144444444,5.49611111 C1.00388889,5.42388889 1.79833333,6.22555556 2.58555556,6.20388889 C2.58555556,6.21111111 2.58555556,6.21833333 2.58555556,6.23277778 C1.79111111,6.47833333 0.621111111,5.88611111 0.065,6.51444444 C0.91,6.305 1.82,6.98388889 2.6,6.83222222 C2.6,6.83944444 2.6,6.84666667 2.6,6.85388889 C1.85611111,7.22222222 0.599444444,6.81777778 0.144444444,7.52555556 C0.946111111,7.18611111 1.95722222,7.72055556 2.70111111,7.43888889 C2.70111111,7.44611111 2.70833333,7.45333333 2.70833333,7.46055556 C2.03666667,7.95166667 0.722222222,7.74222222 0.382777778,8.515 C1.12666667,8.05277778 2.21,8.42111111 2.90333333,8.02388889 C2.90333333,8.03111111 2.91055556,8.03833333 2.91055556,8.03833333 C2.32555556,8.63777778 0.989444444,8.63055556 0.772777778,9.45388889 C1.43722222,8.87611111 2.57111111,9.07833333 3.19222222,8.56555556 C3.19222222,8.57277778 3.19944444,8.57277778 3.19944444,8.58 C2.72277778,9.26611111 1.38666667,9.46833333 1.3,10.3205556 C1.86333333,9.64888889 3.02611111,9.67055556 3.55333333,9.06388889 C3.55333333,9.06388889 3.56055556,9.07111111 3.56055556,9.07833333 C3.19944444,9.83666667 1.90666667,10.2411111 1.95722222,11.1005556 C2.41222222,10.3422222 3.56777778,10.1905556 3.99388889,9.49722222 C3.99388889,9.49722222 4.00111111,9.50444444 4.00111111,9.50444444 C3.77,10.3133333 2.54944444,10.92 2.73,11.7577778 C3.06222222,10.9344444 4.18166667,10.6022222 4.49222222,9.85111111 C4.49222222,9.85111111 4.49944444,9.85833333 4.49944444,9.85833333 C4.39833333,10.6961111 3.27888889,11.4833333 3.59666667,12.285 C3.79888889,11.4255556 4.85333333,10.92 5.04111111,10.1255556 C5.04111111,10.1255556 5.04833333,10.1255556 5.04833333,10.1327778 C5.08444444,10.9777778 4.10222222,11.9311111 4.53555556,12.675 C4.59333333,11.7938889 5.56111111,11.1294444 5.61888889,10.3133333 C5.61888889,10.3133333 5.62611111,10.3133333 5.62611111,10.3133333 C5.79222222,11.1438889 4.96888889,12.2416667 5.51777778,12.9061111 C5.43833333,12.025 6.29055556,11.2161111 6.21833333,10.4072222 C6.21833333,10.4072222 6.22555556,10.4072222 6.22555556,10.4072222 C6.52166667,11.2016667 5.87888889,12.415 6.52166667,12.9855556 C6.305,12.1261111 7.02,11.1944444 6.825,10.4072222 C6.825,10.4072222 6.83222222,10.4072222 6.83222222,10.4072222 C7.24388889,11.1438889 6.80333333,12.4438889 7.53277778,12.9061111 C7.18611111,12.09 7.74222222,11.0644444 7.43166667,10.3133333 C7.43166667,10.3133333 7.43888889,10.3133333 7.43888889,10.3133333 C7.95888889,10.9777778 7.72777778,12.3283333 8.515,12.6677778 C8.04555556,11.9166667 8.43555556,10.8188889 8.00944444,10.1255556 C8.00944444,10.1255556 8.01666667,10.1255556 8.01666667,10.1183333 C8.63055556,10.6961111 8.61611111,12.0611111 9.44666667,12.2777778 C8.86888889,11.6133333 9.07833333,10.465 8.55111111,9.85111111 C8.55111111,9.85111111 8.55833333,9.84388889 8.55833333,9.84388889 C9.25166667,10.3205556 9.45388889,11.6638889 10.3061111,11.7505556 C9.62722222,11.1872222 9.65611111,10.0244444 9.04944444,9.49722222 C9.04944444,9.49722222 9.05666667,9.49 9.06388889,9.49 C9.82222222,9.85111111 10.2266667,11.1438889 11.0861111,11.0933333 C10.335,10.6383333 10.1761111,9.49722222 9.49722222,9.06388889 C9.49722222,9.05666667 9.50444444,9.05666667 9.51166667,9.04944444 C10.3133333,9.295 10.9127778,10.5011111 11.7505556,10.3205556 C10.9416667,9.99555556 10.6022222,8.89055556 9.87277778,8.57277778 C9.87277778,8.56555556 9.88,8.55833333 9.88,8.55833333 C10.7033333,8.68111111 11.4905556,9.77166667 12.285,9.46111111 C11.4327778,9.26611111 10.9344444,8.24055556 10.1616667,8.03111111 C10.1616667,8.02388889 10.1688889,8.01666667 10.1688889,8.00944444 C10.9994444,8.00944444 11.9383333,8.95555556 12.6677778,8.52222222 C11.8011111,8.46444444 11.1438889,7.53277778 10.3566667,7.43888889 C10.3566667,7.43166667 10.3566667,7.42444444 10.3638889,7.41722222 C11.1872222,7.29444444 12.2488889,8.06722222 12.9061111,7.53277778 C12.0466667,7.61222222 11.2522222,6.80333333 10.465,6.825 C10.465,6.81777778 10.465,6.81055556 10.465,6.79611111 C11.2666667,6.55777778 12.4366667,7.15 12.9927778,6.52166667 M10.0244444,6.92611111 C10.0027778,7.09944444 9.97388889,7.27277778 9.93055556,7.43888889 C9.95222222,7.44611111 9.97388889,7.44611111 10.0027778,7.45333333 C9.97388889,7.46055556 9.945,7.46777778 9.92333333,7.475 C9.88,7.64111111 9.815,7.80722222 9.74277778,7.96611111 C9.76444444,7.97333333 9.78611111,7.98055556 9.80777778,7.98777778 C9.77888889,7.98777778 9.75,7.98777778 9.72833333,7.995 C9.65611111,8.15388889 9.56944444,8.30555556 9.47555556,8.45 C9.49722222,8.46444444 9.51888889,8.47166667 9.54055556,8.48611111 C9.51166667,8.48611111 9.48277778,8.47888889 9.46111111,8.47888889 C9.36722222,8.62333333 9.25888889,8.76055556 9.14333333,8.89055556 C9.15777778,8.905 9.17944444,8.91944444 9.20111111,8.93388889 C9.17222222,8.92666667 9.14333333,8.91944444 9.12166667,8.91222222 C9.00611111,9.04222222 8.87611111,9.15777778 8.73888889,9.26611111 C8.75333333,9.28055556 8.76777778,9.30222222 8.78944444,9.31666667 C8.76055556,9.30222222 8.73888889,9.295 8.71,9.28777778 C8.57277778,9.39611111 8.42833333,9.49722222 8.27666667,9.58388889 C8.29111111,9.60555556 8.30555556,9.62 8.32,9.64166667 C8.29833333,9.62722222 8.27666667,9.61277778 8.24777778,9.59833333 C8.09611111,9.685 7.93722222,9.75722222 7.77833333,9.82222222 C7.78555556,9.84388889 7.8,9.86555556 7.81444444,9.88722222 C7.79277778,9.86555556 7.77111111,9.85111111 7.74944444,9.83666667 C7.59055556,9.89444444 7.41722222,9.945 7.25111111,9.98111111 C7.25833333,10.0027778 7.26555556,10.0244444 7.27277778,10.0533333 C7.25833333,10.0316667 7.23666667,10.01 7.22222222,9.98833333 C7.05611111,10.0244444 6.88277778,10.0461111 6.70222222,10.0533333 C6.70222222,10.075 6.70944444,10.0966667 6.70944444,10.1255556 C6.695,10.1038889 6.68055556,10.075 6.66611111,10.0533333 C6.61555556,10.0533333 6.565,10.0533333 6.52166667,10.0533333 C6.39166667,10.0533333 6.26888889,10.0461111 6.14611111,10.0316667 C6.14611111,10.0533333 6.14611111,10.075 6.14611111,10.1038889 C6.13888889,10.075 6.12444444,10.0533333 6.11722222,10.0244444 C5.94388889,10.0027778 5.77055556,9.97388889 5.60444444,9.92333333 C5.59722222,9.945 5.59722222,9.96666667 5.59,9.99555556 C5.58277778,9.96666667 5.57555556,9.93777778 5.56833333,9.91611111 C5.40222222,9.87277778 5.23611111,9.80777778 5.07722222,9.73555556 C5.07,9.75722222 5.06277778,9.77888889 5.05555556,9.80777778 C5.05555556,9.77888889 5.05555556,9.75 5.04833333,9.72833333 C4.88944444,9.65611111 4.73777778,9.56944444 4.59333333,9.47555556 C4.57888889,9.49722222 4.57166667,9.51888889 4.55722222,9.54055556 C4.55722222,9.51166667 4.56444444,9.48277778 4.56444444,9.46111111 C4.42,9.36722222 4.28277778,9.25888889 4.15277778,9.14333333 C4.13833333,9.15777778 4.12388889,9.17944444 4.10944444,9.20111111 C4.11666667,9.17222222 4.12388889,9.14333333 4.13111111,9.12166667 C4.00111111,9.00611111 3.88555556,8.87611111 3.77722222,8.73888889 C3.76277778,8.75333333 3.74111111,8.76777778 3.72666667,8.78944444 C3.74111111,8.76055556 3.74833333,8.73888889 3.75555556,8.71 C3.64722222,8.57277778 3.55333333,8.42833333 3.45944444,8.27666667 C3.43777778,8.29111111 3.42333333,8.30555556 3.40166667,8.32 C3.41611111,8.29833333 3.43055556,8.27666667 3.445,8.24777778 C3.35833333,8.09611111 3.28611111,7.93722222 3.22111111,7.77833333 C3.19944444,7.78555556 3.17777778,7.8 3.15611111,7.80722222 C3.17777778,7.78555556 3.19222222,7.76388889 3.20666667,7.74222222 C3.14888889,7.58333333 3.09833333,7.41 3.06222222,7.24388889 C3.04055556,7.25111111 3.01888889,7.25833333 2.99,7.26555556 C3.01166667,7.25111111 3.03333333,7.22944444 3.055,7.215 C3.01888889,7.04888889 2.99722222,6.87555556 2.99,6.695 C2.96833333,6.695 2.94666667,6.70222222 2.91777778,6.70944444 C2.93944444,6.695 2.96833333,6.68055556 2.99,6.66611111 C2.99,6.61555556 2.99,6.57222222 2.99,6.52166667 C2.99,6.39888889 2.99722222,6.26888889 3.01166667,6.14611111 C2.99,6.14611111 2.96833333,6.14611111 2.93944444,6.14611111 C2.96833333,6.13888889 2.99,6.12444444 3.01888889,6.11722222 C3.04055556,5.94388889 3.06944444,5.77055556 3.12,5.60444444 C3.09833333,5.59722222 3.07666667,5.59722222 3.04777778,5.59 C3.07666667,5.58277778 3.10555556,5.57555556 3.12722222,5.56833333 C3.17055556,5.40222222 3.23555556,5.23611111 3.30777778,5.07722222 C3.28611111,5.07 3.26444444,5.06277778 3.24277778,5.05555556 C3.27166667,5.05555556 3.30055556,5.05555556 3.32222222,5.04833333 C3.39444444,4.88944444 3.48111111,4.73777778 3.575,4.59333333 C3.55333333,4.57888889 3.53166667,4.57166667 3.51,4.55722222 C3.53888889,4.55722222 3.56777778,4.56444444 3.58944444,4.56444444 C3.68333333,4.42 3.79166667,4.28277778 3.90722222,4.15277778 C3.89277778,4.13833333 3.87111111,4.12388889 3.84944444,4.10944444 C3.87833333,4.11666667 3.90722222,4.12388889 3.92888889,4.13111111 C4.04444444,4.00111111 4.17444444,3.88555556 4.31166667,3.77722222 C4.29722222,3.76277778 4.28277778,3.74111111 4.26111111,3.72666667 C4.29,3.74111111 4.31166667,3.74833333 4.34055556,3.75555556 C4.47777778,3.64722222 4.62222222,3.54611111 4.77388889,3.45944444 C4.75944444,3.43777778 4.75222222,3.42333333 4.73055556,3.40166667 C4.75222222,3.41611111 4.77388889,3.43055556 4.80277778,3.445 C4.95444444,3.35833333 5.11333333,3.28611111 5.27222222,3.22111111 C5.265,3.19944444 5.25055556,3.17777778 5.24333333,3.15611111 C5.265,3.17777778 5.28666667,3.19222222 5.30833333,3.20666667 C5.46722222,3.14888889 5.64055556,3.09833333 5.80666667,3.06222222 C5.79944444,3.04055556 5.79222222,3.01888889 5.785,2.99 C5.79944444,3.01166667 5.82111111,3.03333333 5.83555556,3.055 C6.00166667,3.01888889 6.175,2.99722222 6.35555556,2.99 C6.35555556,2.96833333 6.34833333,2.94666667 6.34111111,2.91777778 C6.35555556,2.93944444 6.37,2.96833333 6.38444444,2.99 C6.435,2.99 6.47833333,2.99 6.52888889,2.99 C6.65166667,2.99 6.78166667,2.99722222 6.90444444,3.01166667 C6.90444444,2.99 6.90444444,2.96833333 6.90444444,2.93944444 C6.91166667,2.96833333 6.92611111,2.99 6.93333333,3.01888889 C7.10666667,3.04055556 7.28,3.06944444 7.44611111,3.11277778 C7.45333333,3.09111111 7.45333333,3.06944444 7.46055556,3.04055556 C7.46777778,3.06944444 7.475,3.09833333 7.48222222,3.12 C7.64833333,3.16333333 7.81444444,3.22833333 7.97333333,3.30055556 C7.98055556,3.27888889 7.98777778,3.25722222 7.995,3.22833333 C7.995,3.25722222 7.995,3.28611111 8.00222222,3.30777778 C8.16111111,3.38 8.31277778,3.46666667 8.45722222,3.56055556 C8.47166667,3.53888889 8.47888889,3.51722222 8.49333333,3.49555556 C8.49333333,3.52444444 8.48611111,3.55333333 8.48611111,3.575 C8.63055556,3.66888889 8.76777778,3.77722222 8.89777778,3.89277778 C8.91222222,3.87833333 8.92666667,3.85666667 8.94111111,3.835 C8.93388889,3.86388889 8.92666667,3.89277778 8.91944444,3.91444444 C9.04944444,4.03 9.165,4.16 9.27333333,4.29722222 C9.28777778,4.28277778 9.30944444,4.26833333 9.32388889,4.24666667 C9.30944444,4.27555556 9.30222222,4.29722222 9.295,4.32611111 C9.40333333,4.46333333 9.49722222,4.60777778 9.59111111,4.75944444 C9.61277778,4.745 9.62722222,4.73055556 9.64888889,4.71611111 C9.63444444,4.73777778 9.62,4.75944444 9.60555556,4.78833333 C9.69222222,4.94 9.76444444,5.09888889 9.82944444,5.25777778 C9.85111111,5.25055556 9.87277778,5.23611111 9.89444444,5.22166667 C9.87277778,5.24333333 9.85833333,5.265 9.84388889,5.28666667 C9.90166667,5.44555556 9.95222222,5.61888889 9.98833333,5.785 C10.01,5.77777778 10.0316667,5.77055556 10.0605556,5.76333333 C10.0388889,5.77777778 10.0172222,5.79944444 9.99555556,5.81388889 C10.0316667,5.98 10.0533333,6.15333333 10.0605556,6.33388889 C10.0822222,6.33388889 10.1038889,6.32666667 10.1327778,6.31944444 C10.1111111,6.33388889 10.0822222,6.34833333 10.0605556,6.36277778 C10.0605556,6.41333333 10.0605556,6.46388889 10.0605556,6.50722222 C10.0605556,6.63722222 10.0533333,6.76 10.0388889,6.88277778 C10.0605556,6.88277778 10.0822222,6.88277778 10.1111111,6.88277778 C10.075,6.90444444 10.0533333,6.91888889 10.0244444,6.92611111" id="Shape"></path>
            <path d="M8.21166667,4.16722222 C7.735,3.82055556 7.15722222,3.61111111 6.52166667,3.61111111 C5.89333333,3.61111111 5.30833333,3.81333333 4.83166667,4.16722222 C5.43111111,4.18888889 5.99444444,4.32611111 6.52166667,4.55 C7.04888889,4.32611111 7.61944444,4.18888889 8.21166667,4.16722222" id="Shape"></path>
            <path d="M6.92611111,5.785 C6.86833333,5.82833333 6.81055556,5.87888889 6.76,5.92222222 C7.56888889,6.68777778 8.08166667,7.76388889 8.10333333,8.96277778 C8.19,8.905 8.27666667,8.84 8.36333333,8.76777778 C8.28388889,7.58333333 7.74944444,6.52888889 6.92611111,5.785" id="Shape"></path>
            <path d="M7.40277778,5.46 C7.33777778,5.49611111 7.26555556,5.53944444 7.20055556,5.58277778 C8.00944444,6.28333333 8.57277778,7.27277778 8.73166667,8.39222222 C8.81111111,8.29111111 8.89055556,8.19 8.95555556,8.08166667 C8.73888889,7.04166667 8.18277778,6.12444444 7.40277778,5.46" id="Shape"></path>
            <path d="M5.31555556,5.29388889 C4.94,5.12055556 4.52833333,5.005 4.095,4.95444444 C3.80611111,5.40944444 3.64,5.94388889 3.64,6.52166667 C3.64,6.86833333 3.69777778,7.20055556 3.81333333,7.51111111 C4.10222222,6.63722222 4.62944444,5.87166667 5.31555556,5.29388889" id="Shape"></path>
            <path d="M5.33,9.04944444 C5.33,9.09277778 5.33,9.13611111 5.33,9.17944444 C5.69111111,9.34555556 6.09555556,9.43944444 6.52166667,9.43944444 C6.94777778,9.43944444 7.35222222,9.34555556 7.71333333,9.17944444 C7.71333333,9.13611111 7.71333333,9.09277778 7.71333333,9.04944444 C7.71333333,7.91555556 7.25833333,6.88277778 6.52166667,6.13888889 C5.785,6.88277778 5.33,7.91555556 5.33,9.04944444" id="Shape"></path>
            <path d="M7.735,5.29388889 C8.42111111,5.87166667 8.94833333,6.63722222 9.23722222,7.51833333 C9.34555556,7.20777778 9.41055556,6.87555556 9.41055556,6.52888889 C9.41055556,5.95111111 9.24444444,5.41666667 8.95555556,4.96166667 C8.52222222,5.005 8.11055556,5.12055556 7.735,5.29388889" id="Shape"></path>
            <path d="M6.29055556,5.92222222 C6.23277778,5.87166667 6.175,5.82833333 6.12444444,5.785 C5.30111111,6.52888889 4.76666667,7.59055556 4.68722222,8.775 C4.76666667,8.84 4.85333333,8.905 4.94722222,8.97 C4.96888889,7.76388889 5.48166667,6.68055556 6.29055556,5.92222222" id="Shape"></path>
            <path d="M5.84277778,5.58277778 C5.77777778,5.53944444 5.71277778,5.49611111 5.64055556,5.46 C4.86055556,6.12444444 4.30444444,7.04166667 4.08777778,8.08166667 C4.15277778,8.19 4.23222222,8.29111111 4.31166667,8.39222222 C4.47777778,7.28 5.03388889,6.29055556 5.84277778,5.58277778" id="Shape"></path>
        </g>
    </g>
</svg>