<?xml version="1.0" encoding="UTF-8"?>
<svg width="30px" height="20px" viewBox="0 0 30 20" version="1.1" xmlns="http://www.w3.org/2000/svg" xmlns:xlink="http://www.w3.org/1999/xlink" style="background: #FFFFFF;">
    <!-- Generator: Sketch 49.3 (51167) - http://www.bohemiancoding.com/sketch -->
    <defs>
        <polygon id="path-1" points="-5.32907052e-16 4.93432455e-15 30 2.96059473e-15 30 20 -5.32907052e-16 20"></polygon>
    </defs>
    <use id="Mask" fill="#06BDE8" xlink:href="#path-1"></use>
    <g id="Flag" mask="url(#mask-2)">
        <g transform="translate(10.000000, 5.000000)" id="Group">
            <path d="M6.27540984,1.59870968 C6.06803279,1.56258065 6.02295082,1.40903226 6.05,1.26451613 C6.09508197,1.05677419 6.56393443,0.144516129 6.56393443,0.144516129 C6.56393443,0.144516129 6.65409836,1.16516129 6.60901639,1.37290323 C6.58196721,1.52645161 6.48278689,1.63483871 6.27540984,1.59870968 Z M7.0147541,1.82451613 C6.82540984,1.74322581 6.79836066,1.58967742 6.86147541,1.45419355 C6.94262295,1.26451613 7.58278689,0.460645161 7.58278689,0.460645161 C7.58278689,0.460645161 7.46557377,1.48129032 7.38442623,1.67096774 C7.33032787,1.81548387 7.20409836,1.90580645 7.0147541,1.82451613 Z M7.7,2.19483871 C7.52868852,2.07741935 7.53770492,1.92387097 7.61885246,1.79741935 C7.73606557,1.61677419 8.5204918,0.957419355 8.5204918,0.957419355 C8.5204918,0.957419355 8.21393443,1.94193548 8.09672131,2.11354839 C8.00655738,2.24 7.87131148,2.31225806 7.7,2.19483871 Z M8.29508197,2.68258065 C8.15081967,2.53806452 8.18688525,2.38451613 8.29508197,2.27612903 C8.43934426,2.1316129 9.34098361,1.63483871 9.34098361,1.63483871 C9.34098361,1.63483871 8.84508197,2.53806452 8.70081967,2.68258065 C8.59262295,2.79096774 8.43934426,2.82709677 8.29508197,2.68258065 Z M8.79098361,3.28774194 C8.67377049,3.11612903 8.74590164,2.9716129 8.86311475,2.89032258 C9.04344262,2.78193548 10.0172131,2.46580645 10.0172131,2.46580645 C10.0172131,2.46580645 9.35901639,3.2516129 9.18770492,3.36903226 C9.06147541,3.45032258 8.90819672,3.45935484 8.79098361,3.28774194 Z M9.16065574,3.97419355 C9.0795082,3.77548387 9.16967213,3.65806452 9.32295082,3.59483871 C9.51229508,3.52258065 10.5311475,3.40516129 10.5311475,3.40516129 C10.5311475,3.40516129 9.72868852,4.04645161 9.53934426,4.12774194 C9.39508197,4.19096774 9.24180328,4.16387097 9.16065574,3.97419355 Z M9.38606557,4.71483871 C9.34098361,4.50709677 9.45819672,4.40774194 9.61147541,4.38064516 C9.81885246,4.33548387 10.8377049,4.42580645 10.8377049,4.42580645 C10.8377049,4.42580645 9.91803279,4.89548387 9.71967213,4.94064516 C9.57540984,4.96774194 9.43114754,4.91354839 9.38606557,4.71483871 Z M9.45819672,5.4916129 C9.45819672,5.28387097 9.59344262,5.20258065 9.74672131,5.20258065 C9.95409836,5.20258065 10.9368852,5.4916129 10.9368852,5.4916129 C10.9368852,5.4916129 9.95409836,5.78064516 9.74672131,5.78064516 C9.59344262,5.78064516 9.45819672,5.69935484 9.45819672,5.4916129 Z M9.38606557,6.25935484 C9.42213115,6.06064516 9.56639344,6.00645161 9.71967213,6.03354839 C9.92704918,6.07870968 10.8377049,6.5483871 10.8377049,6.5483871 C10.8377049,6.5483871 9.80983607,6.63870968 9.61147541,6.59354839 C9.45819672,6.56645161 9.35,6.46709677 9.38606557,6.25935484 Z M9.16065574,7.00903226 C9.23278689,6.81032258 9.38606557,6.79225806 9.53032787,6.84645161 C9.71967213,6.92774194 10.5221311,7.56903226 10.5221311,7.56903226 C10.5221311,7.56903226 9.50327869,7.46064516 9.31393443,7.37935484 C9.16967213,7.32516129 9.0795082,7.19870968 9.16065574,7.00903226 Z M8.79098361,7.68645161 C8.90819672,7.51483871 9.06147541,7.52387097 9.19672131,7.60516129 C9.36803279,7.72258065 10.0262295,8.5083871 10.0262295,8.5083871 C10.0262295,8.5083871 9.04344262,8.20129032 8.87213115,8.08387097 C8.74590164,7.99354839 8.67377049,7.85806452 8.79098361,7.68645161 Z M8.29508197,8.2916129 C8.44836066,8.14709677 8.59262295,8.18322581 8.70081967,8.2916129 C8.84508197,8.43612903 9.34098361,9.33935484 9.34098361,9.33935484 C9.34098361,9.33935484 8.43934426,8.84258065 8.29508197,8.69806452 C8.18688525,8.58967742 8.15081967,8.43612903 8.29508197,8.2916129 Z M7.7,8.7883871 C7.87131148,8.67096774 8.00655738,8.73419355 8.09672131,8.86967742 C8.20491803,9.04129032 8.5204918,10.0258065 8.5204918,10.0258065 C8.5204918,10.0258065 7.73606557,9.35741935 7.61885246,9.18580645 C7.53770492,9.05935484 7.52868852,8.90580645 7.7,8.7883871 Z M7.0147541,9.14967742 C7.20409836,9.0683871 7.33032787,9.16774194 7.38442623,9.31225806 C7.46557377,9.50193548 7.58278689,10.5225806 7.58278689,10.5225806 C7.58278689,10.5225806 6.94262295,9.71870968 6.86147541,9.52903226 C6.79836066,9.38451613 6.82540984,9.23096774 7.0147541,9.14967742 Z M3.3,8.7883871 C3.47131148,8.89677419 3.46229508,9.05032258 3.38114754,9.18580645 C3.26393443,9.36645161 2.4795082,10.0258065 2.4795082,10.0258065 C2.4795082,10.0258065 2.78606557,9.04129032 2.90327869,8.86967742 C2.99344262,8.74322581 3.12868852,8.67096774 3.3,8.7883871 Z M2.70491803,8.2916129 C2.84918033,8.43612903 2.81311475,8.58967742 2.70491803,8.69806452 C2.56065574,8.84258065 1.65901639,9.33935484 1.65901639,9.33935484 C1.65901639,9.33935484 2.15491803,8.43612903 2.29918033,8.2916129 C2.40737705,8.18322581 2.56065574,8.14709677 2.70491803,8.2916129 Z M2.20901639,7.68645161 C2.32622951,7.86709677 2.25409836,8.00258065 2.13688525,8.08387097 C1.95655738,8.19225806 0.982786885,8.5083871 0.982786885,8.5083871 C0.982786885,8.5083871 1.64098361,7.72258065 1.81229508,7.60516129 C1.93852459,7.52387097 2.09180328,7.51483871 2.20901639,7.68645161 Z M1.83934426,7.00903226 C1.9204918,7.19870968 1.83032787,7.31612903 1.68606557,7.3883871 C1.49672131,7.46064516 0.477868852,7.57806452 0.477868852,7.57806452 C0.477868852,7.57806452 1.28032787,6.93677419 1.46967213,6.85548387 C1.60491803,6.79225806 1.75819672,6.81935484 1.83934426,7.00903226 Z M1.61393443,6.25935484 C1.65901639,6.46709677 1.54180328,6.56645161 1.38852459,6.59354839 C1.18114754,6.63870968 0.162295082,6.5483871 0.162295082,6.5483871 C0.162295082,6.5483871 1.08196721,6.07870968 1.28032787,6.03354839 C1.43360656,6.00645161 1.56885246,6.06064516 1.61393443,6.25935484 Z M1.54180328,5.4916129 C1.54180328,5.69935484 1.40655738,5.7716129 1.25327869,5.78064516 C1.04590164,5.78064516 0.0631147541,5.4916129 0.0631147541,5.4916129 C0.0631147541,5.4916129 1.04590164,5.20258065 1.25327869,5.20258065 C1.40655738,5.20258065 1.54180328,5.28387097 1.54180328,5.4916129 Z M1.61393443,4.71483871 C1.57786885,4.91354839 1.43360656,4.96774194 1.28032787,4.94064516 C1.07295082,4.89548387 0.162295082,4.42580645 0.162295082,4.42580645 C0.162295082,4.42580645 1.18114754,4.34451613 1.38852459,4.38064516 C1.54180328,4.40774194 1.65,4.50709677 1.61393443,4.71483871 Z M1.83934426,3.97419355 C1.76721311,4.16387097 1.61393443,4.18193548 1.46967213,4.13677419 C1.28032787,4.05548387 0.477868852,3.41419355 0.477868852,3.41419355 C0.477868852,3.41419355 1.49672131,3.52258065 1.68606557,3.60387097 C1.83032787,3.65806452 1.9204918,3.78451613 1.83934426,3.97419355 Z M2.20901639,3.28774194 C2.09180328,3.45935484 1.93852459,3.45032258 1.80327869,3.36903226 C1.63196721,3.2516129 0.973770492,2.46580645 0.973770492,2.46580645 C0.973770492,2.46580645 1.95655738,2.77290323 2.12786885,2.89032258 C2.25409836,2.98064516 2.32622951,3.11612903 2.20901639,3.28774194 Z M2.70491803,2.68258065 C2.55163934,2.82709677 2.40737705,2.79096774 2.29918033,2.68258065 C2.15491803,2.53806452 1.65901639,1.63483871 1.65901639,1.63483871 C1.65901639,1.63483871 2.56065574,2.1316129 2.70491803,2.27612903 C2.81311475,2.38451613 2.84918033,2.53806452 2.70491803,2.68258065 Z M5.5,2.00516129 C7.4204918,2.00516129 8.98032787,3.56774194 8.98032787,5.50064516 C8.98032787,7.42451613 7.4204918,8.98709677 5.5,8.98709677 C3.5704918,8.98709677 2.01065574,7.42451613 2.01065574,5.50064516 C2.01065574,3.56774194 3.5704918,2.00516129 5.5,2.00516129 Z M5.5,1.52645161 C5.29262295,1.52645161 5.21147541,1.39096774 5.21147541,1.23741935 C5.21147541,1.02967742 5.5,0.0451612903 5.5,0.0451612903 C5.5,0.0451612903 5.7795082,1.02967742 5.7795082,1.23741935 C5.7795082,1.39096774 5.70737705,1.52645161 5.5,1.52645161 Z M6.27540984,9.37548387 C6.47377049,9.33935484 6.57295082,9.44774194 6.60901639,9.60129032 C6.65409836,9.8 6.56393443,10.8296774 6.56393443,10.8296774 C6.56393443,10.8296774 6.08606557,9.91741935 6.05,9.70967742 C6.02295082,9.56516129 6.07704918,9.42064516 6.27540984,9.37548387 Z M5.5,9.45677419 C5.70737705,9.45677419 5.78852459,9.58322581 5.7795082,9.74580645 C5.7795082,9.95354839 5.5,10.9380645 5.5,10.9380645 C5.5,10.9380645 5.21147541,9.95354839 5.21147541,9.74580645 C5.21147541,9.59225806 5.29262295,9.45677419 5.5,9.45677419 Z M4.72459016,9.37548387 C4.93196721,9.42064516 4.97704918,9.56516129 4.95,9.70967742 C4.90491803,9.91741935 4.43606557,10.8296774 4.43606557,10.8296774 C4.43606557,10.8296774 4.35491803,9.8 4.39098361,9.60129032 C4.41803279,9.44774194 4.51721311,9.33935484 4.72459016,9.37548387 Z M3.9852459,9.14967742 C4.17459016,9.23096774 4.20163934,9.38451613 4.14754098,9.52 C4.06639344,9.70967742 3.42622951,10.5135484 3.42622951,10.5135484 C3.42622951,10.5135484 3.53442623,9.49290323 3.61557377,9.30322581 C3.66967213,9.15870968 3.79590164,9.0683871 3.9852459,9.14967742 Z M3.3,2.19483871 C3.12868852,2.30322581 2.99344262,2.24 2.90327869,2.11354839 C2.79508197,1.94193548 2.4795082,0.957419355 2.4795082,0.957419355 C2.4795082,0.957419355 3.26393443,1.62580645 3.38114754,1.79741935 C3.46229508,1.92387097 3.47131148,2.07741935 3.3,2.19483871 Z M3.9852459,1.82451613 C3.79590164,1.90580645 3.66967213,1.81548387 3.60655738,1.66193548 C3.53442623,1.47225806 3.41721311,0.451612903 3.41721311,0.451612903 C3.41721311,0.451612903 4.05737705,1.25548387 4.13852459,1.44516129 C4.20163934,1.58967742 4.17459016,1.74322581 3.9852459,1.82451613 Z M4.72459016,1.59870968 C4.52622951,1.64387097 4.42704918,1.52645161 4.39098361,1.37290323 C4.34590164,1.16516129 4.43606557,0.144516129 4.43606557,0.144516129 C4.43606557,0.144516129 4.91393443,1.05677419 4.95,1.26451613 C4.97704918,1.41806452 4.92295082,1.55354839 4.72459016,1.59870968 Z" id="Combined-Shape" fill="#F5C933" fill-rule="nonzero"></path>
        </g>
    </g>
</svg>