<?xml version="1.0" encoding="UTF-8"?>
<svg width="30px" height="20px" viewBox="0 0 30 20" version="1.1" xmlns="http://www.w3.org/2000/svg" xmlns:xlink="http://www.w3.org/1999/xlink" style="background: #FFFFFF;">
    <!-- Generator: Sketch 49.3 (51167) - http://www.bohemiancoding.com/sketch -->
    <title>icons/flag/moldova</title>
    <desc>Created with Sketch.</desc>
    <defs></defs>
    <g id="icons/flag/moldova" stroke="none" stroke-width="1" fill="none" fill-rule="evenodd">
        <rect id="Rectangle-18" fill="#363795" x="0" y="0" width="10" height="20"></rect>
        <rect id="Rectangle-18-Copy" fill="#EFDA29" x="10" y="0" width="10" height="20"></rect>
        <g id="if_170_Ensign_Flag_Nation_moldova_2634359" transform="translate(11.000000, 5.000000)" fill-rule="nonzero">
            <path d="M2.96363636,0.0301204819 C2.8969697,0.0301204819 2.84242424,0.0481927711 2.81212121,0.0722891566 C2.86666667,0.0843373494 2.9030303,0.13253012 2.9030303,0.192771084 L2.9030303,0.337349398 L2.84848485,0.337349398 L2.75757576,0.337349398 C2.6969697,0.337349398 2.65454545,0.301204819 2.63636364,0.246987952 C2.61212121,0.277108434 2.59393939,0.337349398 2.59393939,0.397590361 C2.59393939,0.463855422 2.61212121,0.518072289 2.63636364,0.548192771 C2.64848485,0.493975904 2.6969697,0.457831325 2.75757576,0.457831325 L2.84848485,0.457831325 L2.9030303,0.457831325 L2.9030303,0.512048193 L2.9030303,0.969879518 L2.9030303,1.1626506 C2.9030303,1.21686747 2.86666667,1.26506024 2.81818182,1.28313253 C2.89090909,1.29518072 2.95151515,1.38554217 2.96363636,1.43975904 C2.98181818,1.39156627 3.04242424,1.29518072 3.10909091,1.28313253 C3.06060606,1.26506024 3.02424242,1.22289157 3.02424242,1.1626506 L3.02424242,0.831325301 L3.02424242,0.512048193 L3.02424242,0.457831325 L3.07878788,0.457831325 L3.16969697,0.457831325 C3.23030303,0.457831325 3.27272727,0.493975904 3.29090909,0.548192771 C3.31515152,0.518072289 3.33333333,0.457831325 3.33333333,0.397590361 C3.33333333,0.331325301 3.31515152,0.277108434 3.29090909,0.246987952 C3.27878788,0.301204819 3.23030303,0.337349398 3.16969697,0.337349398 L3.07878788,0.337349398 L3.02424242,0.337349398 L3.02424242,0.192771084 C3.02424242,0.138554217 3.06060606,0.0903614458 3.11515152,0.0722891566 C3.08484848,0.0481927711 3.02424242,0.0301204819 2.96363636,0.0301204819" id="Shape" fill="#010101"></path>
            <path d="M2.96363636,0.0602409639 C2.92727273,0.0602409639 2.9030303,0.0662650602 2.87878788,0.0722891566 C2.90909091,0.102409639 2.93333333,0.144578313 2.93333333,0.186746988 L2.93333333,0.331325301 C2.93333333,0.331325301 2.93333333,0.337349398 2.93333333,0.337349398 L2.93333333,0.361445783 L2.90909091,0.361445783 C2.90909091,0.361445783 2.9030303,0.361445783 2.9030303,0.361445783 L2.88484848,0.361445783 L2.84242424,0.361445783 L2.75151515,0.361445783 C2.7030303,0.361445783 2.66060606,0.337349398 2.63636364,0.307228916 C2.63030303,0.331325301 2.61818182,0.361445783 2.61818182,0.391566265 C2.61818182,0.421686747 2.62424242,0.451807229 2.63030303,0.475903614 C2.66060606,0.445783133 2.7030303,0.421686747 2.74545455,0.421686747 L2.83636364,0.421686747 L2.85454545,0.421686747 L2.89090909,0.421686747 L2.92121212,0.421686747 C2.92121212,0.427710843 2.92121212,0.427710843 2.92121212,0.43373494 L2.92121212,0.451807229 C2.92121212,0.451807229 2.92121212,0.457831325 2.92121212,0.457831325 L2.92121212,0.512048193 L2.92121212,0.969879518 L2.92121212,1.1626506 C2.92121212,1.21084337 2.8969697,1.24698795 2.86666667,1.27108434 C2.89090909,1.28313253 2.90909091,1.30120482 2.92727273,1.31927711 C2.93939394,1.3373494 2.94545455,1.35542169 2.95757576,1.37349398 C2.96969697,1.35542169 2.97575758,1.3373494 2.98787879,1.31927711 C3.00606061,1.30120482 3.02424242,1.28313253 3.04242424,1.27108434 C3.01212121,1.24096386 2.98787879,1.20481928 2.98787879,1.1626506 L2.98787879,0.831325301 L2.98787879,0.512048193 L2.98787879,0.506024096 L2.98787879,0.457831325 L2.98787879,0.427710843 L3.01212121,0.427710843 C3.01212121,0.427710843 3.01818182,0.427710843 3.01818182,0.427710843 L3.07272727,0.427710843 L3.16363636,0.427710843 C3.21212121,0.427710843 3.25454545,0.451807229 3.27878788,0.481927711 C3.28484848,0.457831325 3.2969697,0.427710843 3.2969697,0.397590361 C3.2969697,0.36746988 3.29090909,0.337349398 3.28484848,0.313253012 C3.25454545,0.343373494 3.21212121,0.36746988 3.16969697,0.36746988 L3.07878788,0.36746988 L3.02424242,0.36746988 C3.02424242,0.36746988 3.01818182,0.36746988 3.01818182,0.36746988 L2.99393939,0.36746988 L2.99393939,0.343373494 C2.99393939,0.343373494 2.99393939,0.337349398 2.99393939,0.337349398 L2.99393939,0.192771084 C2.99393939,0.144578313 3.01212121,0.108433735 3.04848485,0.078313253 C3.02424242,0.0662650602 2.99393939,0.0602409639 2.96363636,0.0602409639" id="Shape" fill="#F3EB38"></path>
            <polygon id="Shape" fill="#816432" points="3.07272727 2.62048193 2.83030303 2.56024096 2.32121212 2.29518072 1.99393939 2.27710843 1.97575758 1.65662651 1.35757576 1.1626506 0.721212121 1.8373494 0.636363636 2.03614458 0.660606061 8.19879518 1.07272727 7.71084337 1.15757576 7.72891566 1.57575758 7.27710843 1.93939394 6.37951807 2.04242424 6.0060241 2.52727273 6.57228916 2.34545455 6.90963855 2.50909091 6.89759036 2.52121212 7.03614458 2.67878788 6.96987952 2.71515152 7.1626506 3.05454545 6.8253012 3.52121212 7.05421687 2.63636364 8.62650602 2.32121212 8.86144578 2.89090909 9.07228916 3.47272727 8.39759036 3.38787879 8.8373494 3.21212121 9.27108434 3.92727273 9.68072289 4.6969697 9.22289157 4.32121212 8.43373494 4.44242424 8.37349398 4.94545455 9.09638554 5.49090909 8.8313253 4.78181818 8.0060241 4.31515152 7.01204819 4.80606061 6.84939759 5.13939394 7.1686747 5.18787879 6.96385542 5.36969697 7.04819277 5.34545455 6.87349398 5.52121212 6.91566265 5.30909091 6.57228916 5.85454545 6.10843373 6.20606061 7.19277108 6.72121212 7.77710843 6.83030303 7.76506024 7.2 8.22289157 7.2 1.87349398 6.50909091 1.15060241 5.84242424 1.69277108 5.86666667 2.27710843 5.56969697 2.28915663 5.12121212 2.51807229 4.86666667 2.60240964 4.75151515 2.62048193 4.6 2.45783133 4.39393939 2.04819277 4.37575758 1.64457831 4.5030303 1.37951807 4.47878788 1.13253012 4.59393939 1.13253012 4.52121212 0.963855422 4.62424242 0.927710843 4.47272727 0.795180723 4.52727273 0.734939759 3.95757576 0.487951807 3.52121212 0.463855422 3.40606061 0.512048193 3.35151515 0.614457831 3.46666667 0.939759036 3.33939394 1.06024096 3.46060606 1.29518072 3.46666667 1.81325301 3.36969697 2.24698795 3.17575758 2.57831325"></polygon>
            <polygon id="Shape" fill="#C1202D" points="2.41818182 6.91566265 1.98787879 7.56626506 1.78181818 7.56024096 1.56969697 7.6626506 1.4969697 7.89156627 1.52727273 8 1.76363636 8.25301205 1.95151515 8.14457831 2.1030303 7.98192771 2.13939394 7.8373494 2.68484848 7.13855422 2.65454545 6.96385542 2.53939394 7.03614458 2.49090909 6.89156627"></polygon>
            <polygon id="Shape" fill="#C1202D" points="5.15757576 7.11445783 5.73333333 7.87951807 5.78787879 8.03012048 6.03636364 8.25903614 6.11515152 8.24096386 6.39393939 7.92168675 6.32727273 7.69879518 6.07272727 7.54216867 5.87272727 7.56024096 5.44242424 6.91566265 5.36363636 6.88554217 5.33333333 7.01204819 5.20606061 6.97590361"></polygon>
            <path d="M3.65454545,0.427710843 C3.58181818,0.427710843 3.47878788,0.427710843 3.41818182,0.469879518 C3.36363636,0.506024096 3.36363636,0.554216867 3.34545455,0.572289157 C3.2969697,0.614457831 3.21818182,0.608433735 3.18181818,0.608433735 C2.93333333,0.608433735 2.92727273,0.873493976 2.92727273,0.873493976 C2.92727273,0.873493976 2.98787879,0.777108434 3.1030303,0.777108434 C3.29090909,0.777108434 3.43030303,0.879518072 3.43030303,0.915662651 C3.43030303,0.93373494 3.41212121,0.93373494 3.41212121,0.93373494 C3.29090909,0.93373494 3.10909091,0.861445783 3.01212121,0.861445783 L3.01212121,0.897590361 C3.01212121,0.897590361 3.01212121,0.897590361 3.01818182,0.903614458 C3.01818182,0.903614458 3.01818182,0.903614458 3.01212121,0.903614458 L3.01212121,0.909638554 C3.23030303,0.987951807 3.44848485,1.09036145 3.44848485,1.56024096 C3.44848485,1.85542169 3.41212121,2.15662651 3.26666667,2.39156627 C3.21212121,2.47590361 3.13939394,2.54819277 3.04848485,2.60843373 C3.00606061,2.59638554 2.81818182,2.53614458 2.69090909,2.46385542 C2.46060606,2.3373494 2.33939394,2.20481928 2.06060606,2.19277108 L2.06060606,1.98795181 C2.06060606,1.87349398 2.1030303,1.77710843 2.1030303,1.6686747 C1.98787879,1.63855422 1.66060606,1.24698795 1.36363636,1.07228916 C0.927272727,1.35542169 0.587878788,1.81927711 0.587878788,2.03012048 C0.587878788,2.03012048 0.6,6.61445783 0.587878788,8.21084337 C0.587878788,8.30120482 0.533333333,8.43373494 0.533333333,8.43373494 C0.690909091,8.36746988 0.987878788,7.96385542 1.04848485,7.81325301 L1.04848485,7.88554217 C1.29090909,7.77710843 1.46666667,7.48795181 1.54545455,7.3373494 C1.54545455,7.36144578 1.55151515,7.41566265 1.55151515,7.41566265 C1.76969697,7.22891566 2.04242424,6.11445783 2.04242424,6.11445783 L2.03030303,5.87951807 C2.03030303,5.87951807 1.84242424,6.78915663 1.62424242,6.97590361 L1.62424242,3.06024096 L1.79393939,3.21686747 L2.05454545,2.97590361 L2.05454545,2.78915663 L1.82424242,3.0060241 L1.82424242,2.45180723 C1.86060606,2.39759036 1.88484848,2.36144578 1.8969697,2.3313253 C1.93333333,2.39759036 2.05454545,2.59638554 2.19393939,2.71686747 C2.21818182,2.62048193 2.36969697,2.53012048 2.36969697,2.53012048 C2.36969697,2.53012048 2.42424242,2.68072289 2.50909091,2.71686747 C2.53939394,2.6626506 2.71515152,2.54819277 2.71515152,2.54819277 C2.71515152,2.54819277 2.56363636,2.57228916 2.5030303,2.62650602 C2.44848485,2.61445783 2.43636364,2.40963855 2.43636364,2.40963855 C2.43636364,2.40963855 2.21212121,2.51807229 2.17575758,2.59638554 C2.13333333,2.58433735 2.06666667,2.42168675 2.04242424,2.34939759 C2.07878788,2.34337349 2.13333333,2.3373494 2.20606061,2.3373494 C2.26666667,2.3373494 2.35151515,2.36746988 2.43636364,2.40963855 C2.52727273,2.45180723 2.62424242,2.5060241 2.71515152,2.54819277 C2.82424242,2.59638554 2.99393939,2.60843373 3.04242424,2.60843373 C2.98787879,2.64457831 2.92121212,2.68674699 2.85454545,2.71686747 C2.85454545,2.71686747 3.12121212,2.71686747 3.30909091,2.62048193 C3.37575758,2.57831325 3.44242424,2.53614458 3.5030303,2.48795181 C3.47878788,2.56024096 3.43636364,2.64457831 3.37575758,2.71686747 C3.64848485,2.69277108 3.78787879,2.53614458 3.82424242,2.48795181 C3.84242424,2.53614458 3.87272727,2.60843373 3.92727273,2.6746988 C3.97575758,2.60843373 4.01212121,2.53614458 4.03030303,2.48795181 C4.06666667,2.54216867 4.20606061,2.69879518 4.47878788,2.71686747 C4.41818182,2.64457831 4.37575758,2.56024096 4.35151515,2.48795181 C4.41212121,2.53614458 4.47878788,2.57831325 4.54545455,2.62048193 C4.73333333,2.71084337 5,2.71686747 5,2.71686747 C4.93333333,2.68072289 4.86666667,2.64457831 4.81212121,2.60843373 C4.86060606,2.60843373 5.03030303,2.59638554 5.14545455,2.54819277 C5.23030303,2.5060241 5.33333333,2.45180723 5.42424242,2.40963855 C5.50909091,2.36746988 5.58787879,2.3373494 5.65454545,2.3373494 C5.72727273,2.3373494 5.78181818,2.34337349 5.81818182,2.34939759 C5.79393939,2.41566265 5.72727273,2.58433735 5.68484848,2.59638554 C5.64848485,2.51807229 5.42424242,2.40963855 5.42424242,2.40963855 C5.42424242,2.40963855 5.41212121,2.61445783 5.35757576,2.62650602 C5.2969697,2.57228916 5.14545455,2.54819277 5.14545455,2.54819277 C5.14545455,2.54819277 5.32121212,2.6626506 5.35151515,2.71686747 C5.43636364,2.68072289 5.49090909,2.53012048 5.49090909,2.53012048 C5.49090909,2.53012048 5.64242424,2.62048193 5.66666667,2.71686747 C5.80606061,2.59638554 5.92727273,2.39759036 5.96363636,2.3313253 C5.98181818,2.36144578 6.00606061,2.40361446 6.03636364,2.45180723 L6.03636364,3.0060241 L5.80606061,2.78915663 L5.80606061,2.97590361 L6.06666667,3.21686747 L6.23636364,3.06024096 L6.23636364,6.97590361 C6.01818182,6.78915663 5.83030303,5.87951807 5.83030303,5.87951807 L5.81818182,6.11445783 C5.81818182,6.11445783 6.09090909,7.22891566 6.30909091,7.41566265 C6.30909091,7.41566265 6.31515152,7.36144578 6.31515152,7.3373494 C6.39393939,7.48795181 6.56969697,7.77710843 6.81212121,7.88554217 L6.81212121,7.81325301 C6.87272727,7.96385542 7.16969697,8.36746988 7.32727273,8.43373494 C7.32727273,8.43373494 7.27272727,8.30120482 7.27272727,8.21084337 C7.26060606,6.61445783 7.27272727,2.03012048 7.27272727,2.03012048 C7.27272727,1.81927711 6.93333333,1.35542169 6.49090909,1.07228916 C6.19393939,1.24698795 5.86666667,1.63855422 5.75151515,1.6686747 C5.75151515,1.77710843 5.79393939,1.87349398 5.79393939,1.98795181 L5.79393939,2.19879518 C5.51515152,2.21084337 5.39393939,2.34337349 5.16363636,2.46987952 C5.03030303,2.54216867 4.84242424,2.60240964 4.8,2.61445783 C4.70909091,2.54819277 4.63636364,2.48192771 4.58181818,2.39759036 C4.45454545,2.19879518 4.4,1.94578313 4.4,1.69879518 C4.4,1.59036145 4.52121212,1.46987952 4.52121212,1.38554217 C4.52121212,1.25301205 4.50909091,1.1746988 4.50909091,1.1746988 C4.55151515,1.18072289 4.62424242,1.25301205 4.62424242,1.25301205 C4.62424242,1.25301205 4.62424242,1.03614458 4.55151515,1 C4.55151515,1 4.58181818,0.969879518 4.67878788,0.969879518 C4.64848485,0.897590361 4.50909091,0.813253012 4.50909091,0.813253012 C4.51515152,0.801204819 4.52727273,0.789156627 4.54545455,0.78313253 C4.58181818,0.765060241 4.63030303,0.753012048 4.66666667,0.746987952 C4.62424242,0.740963855 4.58181818,0.728915663 4.52727273,0.710843373 C4.41212121,0.674698795 4.27272727,0.620481928 4.14545455,0.560240964 C3.93333333,0.43373494 3.75757576,0.427710843 3.65454545,0.427710843 Z M3.66060606,0.493975904 C3.68484848,0.493975904 3.7030303,0.493975904 3.72121212,0.493975904 C3.95151515,0.493975904 4.10909091,0.596385542 4.32121212,0.692771084 C4.37575758,0.71686747 4.43030303,0.734939759 4.47272727,0.753012048 C4.44242424,0.777108434 4.42424242,0.801204819 4.41818182,0.825301205 C4.41818182,0.825301205 4.51515152,0.843373494 4.55757576,0.921686747 C4.55757576,0.921686747 4.46666667,0.93373494 4.44848485,0.987951807 C4.4969697,0.993975904 4.55151515,1.05421687 4.55151515,1.12048193 L4.42424242,1.07831325 C4.42424242,1.07831325 4.45454545,1.22289157 4.45454545,1.37951807 C4.45454545,1.45783133 4.33939394,1.55421687 4.33939394,1.69277108 C4.33939394,2.12048193 4.44848485,2.28313253 4.52727273,2.41566265 C4.55757576,2.46987952 4.58181818,2.53012048 4.63030303,2.57228916 C4.40606061,2.45180723 4.24242424,2.30722892 4.24242424,2.1686747 L4.24242424,1.65060241 L4.18181818,1.65060241 L4.18181818,2.1686747 C4.18181818,2.26506024 4.20606061,2.31325301 4.20606061,2.31325301 C4.24242424,2.42168675 4.30909091,2.59036145 4.35757576,2.6626506 C4.15151515,2.55421687 4.04848485,2.41566265 4.04848485,2.36144578 L4.04848485,1.65060241 L3.98787879,1.65060241 L3.98787879,2.37349398 L4,2.42168675 C3.97575758,2.45783133 3.94545455,2.5 3.92121212,2.51807229 C3.8969697,2.5060241 3.86666667,2.45783133 3.84242424,2.42168675 L3.85454545,2.37349398 L3.85454545,1.65060241 L3.79393939,1.65060241 L3.79393939,2.36144578 C3.79393939,2.40963855 3.69090909,2.54819277 3.48484848,2.6626506 C3.52727273,2.59638554 3.6,2.42771084 3.63636364,2.31325301 C3.63636364,2.31325301 3.66060606,2.26506024 3.66060606,2.1686747 L3.66060606,1.65060241 L3.60606061,1.65060241 L3.60606061,2.1686747 C3.60606061,2.30722892 3.44242424,2.45180723 3.21818182,2.57228916 C3.26666667,2.53012048 3.29090909,2.46987952 3.32121212,2.41566265 C3.40606061,2.27108434 3.50909091,2.08433735 3.50909091,1.56024096 C3.50909091,1.36144578 3.47878788,1.22891566 3.43030303,1.13855422 C3.41212121,1.10843373 3.39393939,1.02409639 3.51515152,1.02409639 C3.57575758,1.02409639 3.71515152,1.13253012 3.71515152,1.13253012 C3.71515152,1.13253012 3.70909091,1.04819277 3.63636364,1 C3.62424242,0.993975904 3.60606061,0.963855422 3.60606061,0.939759036 C3.60606061,0.921686747 3.63636364,0.879518072 3.66060606,0.86746988 C3.67878788,0.861445783 3.41818182,0.813253012 3.41818182,0.698795181 C3.41818182,0.674698795 3.43636364,0.656626506 3.48484848,0.656626506 C3.55757576,0.656626506 3.66666667,0.740963855 3.76969697,0.740963855 C3.84242424,0.740963855 3.87272727,0.722891566 3.95151515,0.722891566 C4.04848485,0.722891566 4.24242424,0.897590361 4.30909091,0.891566265 C4.23636364,0.843373494 4.11515152,0.668674699 3.92727273,0.668674699 C3.86060606,0.668674699 3.80606061,0.680722892 3.74545455,0.680722892 C3.66666667,0.680722892 3.59393939,0.608433735 3.50909091,0.608433735 C3.45454545,0.608433735 3.39393939,0.614457831 3.38181818,0.596385542 C3.36363636,0.572289157 3.38181818,0.560240964 3.39393939,0.536144578 C3.42424242,0.5 3.5030303,0.487951807 3.57575758,0.481927711 C3.61818182,0.493975904 3.64242424,0.493975904 3.66060606,0.493975904 Z M1.35757576,1.27108434 C1.35757576,1.27108434 1.76363636,1.64457831 1.9030303,1.69277108 L1.90909091,1.81927711 L1.90909091,2.18674699 C1.81212121,2.15060241 1.68484848,1.98795181 1.62424242,1.90361446 L1.62424242,1.85542169 C1.62424242,1.80722892 1.65454545,1.77108434 1.67272727,1.75301205 L1.61212121,1.72891566 C1.58787879,1.75301205 1.56363636,1.79518072 1.56363636,1.84337349 L1.56363636,1.87349398 L1.54545455,1.89156627 L1.53333333,1.90361446 L1.38181818,2.06626506 L1.20606061,1.80120482 L1.20606061,1.73493976 C1.20606061,1.69277108 1.24242424,1.64457831 1.26666667,1.60843373 L1.20606061,1.59036145 C1.17575758,1.62650602 1.14545455,1.68072289 1.14545455,1.72891566 L1.14545455,1.78313253 C1.1030303,1.8253012 0.945454545,1.98795181 0.945454545,1.98795181 C0.945454545,1.98795181 0.866666667,1.81325301 0.842424242,1.77108434 C0.96969697,1.59638554 1.16969697,1.40361446 1.35757576,1.27108434 Z M6.4969697,1.27108434 C6.68484848,1.40963855 6.88484848,1.59638554 7.00606061,1.76506024 C6.98181818,1.81325301 6.9030303,1.98192771 6.9030303,1.98192771 C6.9030303,1.98192771 6.73939394,1.81927711 6.7030303,1.77710843 L6.7030303,1.72289157 C6.7030303,1.6746988 6.67272727,1.62048193 6.64242424,1.58433735 L6.58181818,1.60240964 C6.61212121,1.63855422 6.64242424,1.68674699 6.64242424,1.72891566 L6.64242424,1.79518072 L6.46666667,2.06024096 L6.31515152,1.89759036 L6.3030303,1.88554217 L6.28484848,1.86746988 L6.28484848,1.8373494 C6.28484848,1.78915663 6.26060606,1.74698795 6.23636364,1.72289157 L6.17575758,1.74698795 C6.19393939,1.76506024 6.22424242,1.80120482 6.22424242,1.84939759 L6.22424242,1.89759036 C6.16363636,1.98192771 6.03636364,2.14457831 5.93939394,2.18072289 L5.93939394,1.81325301 L5.94545455,1.68674699 C6.08484848,1.63855422 6.4969697,1.27108434 6.4969697,1.27108434 Z M0.775757576,1.87951807 L0.866666667,2.04819277 L0.866666667,2.34939759 L0.727272727,2.48192771 L0.727272727,2.03012048 C0.727272727,1.98795181 0.745454545,1.93373494 0.775757576,1.87951807 Z M7.07878788,1.87951807 C7.10909091,1.93373494 7.12727273,1.98795181 7.12727273,2.03012048 L7.12727273,2.48192771 L6.98787879,2.34939759 L6.98787879,2.04819277 L7.07878788,1.87951807 Z M1.14545455,1.91566265 L1.30909091,2.1626506 L1.30909091,2.34939759 L1.14545455,2.5 L1.14545455,1.91566265 Z M6.7030303,1.91566265 L6.7030303,2.5060241 L6.53939394,2.35542169 L6.53939394,2.1686747 L6.7030303,1.91566265 Z M1.09090909,1.95783133 L1.09090909,2.5 L0.927272727,2.34939759 L0.927272727,2.12650602 L1.09090909,1.95783133 Z M6.76363636,1.95783133 L6.92727273,2.12650602 L6.92727273,2.34939759 L6.76363636,2.5 L6.76363636,1.95783133 Z M1.59393939,2 C1.61818182,2.04216867 1.73333333,2.22289157 1.83636364,2.27710843 C1.8,2.3313253 1.6969697,2.45783133 1.59393939,2.51807229 L1.59393939,2 Z M6.26060606,2 L6.26060606,2.51807229 C6.15151515,2.45783133 6.05454545,2.3313253 6.01818182,2.27710843 C6.12121212,2.22289157 6.23636364,2.04216867 6.26060606,2 Z M1.53333333,2.02409639 L1.53333333,2.5 L1.36969697,2.34939759 L1.36969697,2.18072289 L1.53333333,2.02409639 Z M6.31515152,2.02409639 L6.47878788,2.18072289 L6.47878788,2.34939759 L6.31515152,2.5 L6.31515152,2.02409639 Z M0.866666667,2.53614458 L0.866666667,3.01204819 L0.727272727,2.87951807 L0.727272727,2.6686747 L0.866666667,2.53614458 Z M6.98181818,2.53614458 L7.12121212,2.6686747 L7.12121212,2.87951807 L6.98181818,3.01204819 L6.98181818,2.53614458 Z M0.927272727,2.53614458 L1.01818182,2.62048193 L1.09090909,2.68674699 L1.09090909,2.85542169 L1.01818182,2.92168675 L0.927272727,3.0060241 L0.927272727,2.53614458 Z M1.30909091,2.53614458 L1.30909091,3.01204819 L1.21818182,2.92771084 L1.14545455,2.86144578 L1.14545455,2.69277108 L1.21818182,2.62650602 L1.30909091,2.53614458 Z M1.36969697,2.53614458 L1.53333333,2.68674699 L1.53333333,2.85542169 L1.46060606,2.92168675 L1.36969697,3.0060241 L1.36969697,2.53614458 Z M1.75757576,2.53614458 L1.75757576,3.01204819 L1.66666667,2.92771084 L1.59393939,2.86144578 L1.59393939,2.70481928 C1.64848485,2.6626506 1.7030303,2.60240964 1.75757576,2.53614458 Z M6.0969697,2.53614458 C6.14545455,2.60240964 6.20606061,2.6626506 6.26060606,2.69879518 L6.26060606,2.85542169 L6.18787879,2.92168675 L6.0969697,3.0060241 L6.0969697,2.53614458 Z M6.47878788,2.53614458 L6.47878788,3.01204819 L6.38787879,2.92771084 L6.31515152,2.86144578 L6.31515152,2.69277108 L6.47878788,2.53614458 Z M6.53939394,2.53614458 L6.63030303,2.62048193 L6.7030303,2.68674699 L6.7030303,2.85542169 L6.63030303,2.92168675 L6.53939394,3.0060241 L6.53939394,2.53614458 Z M6.92727273,2.53614458 L6.92727273,3.01204819 L6.83636364,2.92771084 L6.76363636,2.86144578 L6.76363636,2.69277108 L6.83636364,2.62650602 L6.92727273,2.53614458 Z M1.16969697,3.06024096 L1.33939394,3.22289157 L1.50909091,3.06626506 L1.50909091,6.98192771 C1.50909091,6.98192771 1.52121212,7.1746988 1.52727273,7.30120482 C1.44848485,7.37951807 1.16363636,7.6686747 1.16363636,7.6686747 L1.16363636,3.06024096 L1.16969697,3.06024096 Z M6.68484848,3.06024096 L6.68484848,7.6686747 C6.68484848,7.6686747 6.39393939,7.37951807 6.32121212,7.30120482 C6.32727273,7.1746988 6.33939394,6.98192771 6.33939394,6.98192771 L6.33939394,3.06626506 L6.50909091,3.22289157 L6.68484848,3.06024096 Z M1.07272727,3.06024096 L1.07272727,7.51807229 C1.07272727,7.64457831 0.842424242,7.93975904 0.727272727,8.0060241 L0.727272727,3.06024096 L0.896969697,3.21686747 L1.07272727,3.06024096 Z M6.78181818,3.06024096 L6.95151515,3.21686747 L7.12121212,3.06024096 L7.12121212,8.0060241 C7.01212121,7.93975904 6.77575758,7.64457831 6.77575758,7.51807229 L6.77575758,3.06024096 L6.78181818,3.06024096 Z M2.49090909,6.56024096 C2.49090909,6.56024096 2.32727273,6.89759036 2.26060606,6.95783133 C2.26060606,6.95783133 2.3030303,6.96385542 2.35151515,6.96385542 C2.32121212,7.0060241 2.09090909,7.3373494 2.01818182,7.46385542 C1.95151515,7.57831325 1.9030303,7.53012048 1.8,7.53012048 C1.71515152,7.53012048 1.52121212,7.6686747 1.48484848,7.72289157 C1.44848485,7.78313253 1.42424242,7.84939759 1.42424242,7.90963855 C1.42424242,7.97590361 1.49090909,8.06024096 1.49090909,8.06024096 C1.4969697,8.03012048 1.50909091,8.01807229 1.50909091,8.01807229 C1.50909091,8.01807229 1.69090909,8.24096386 1.71515152,8.27108434 C1.73333333,8.29518072 1.82424242,8.30722892 1.86060606,8.27710843 C1.93939394,8.20481928 2.01818182,8.15060241 2.09090909,8.04819277 C2.12727273,7.9939759 2.13333333,7.93373494 2.17575758,7.87349398 C2.31515152,7.68072289 2.6,7.30722892 2.66666667,7.22289157 C2.67272727,7.24698795 2.67272727,7.26506024 2.67878788,7.28915663 C2.75151515,7.14457831 3.1030303,6.86144578 3.1030303,6.86144578 L3.00606061,6.79518072 C3.00606061,6.79518072 2.79393939,7.04216867 2.72727273,7.08433735 C2.72727273,7.08433735 2.6969697,6.96385542 2.67878788,6.92168675 C2.67878788,6.92168675 2.6,6.98192771 2.55151515,6.98192771 C2.55151515,6.98192771 2.53939394,6.89759036 2.52727273,6.84337349 C2.47272727,6.87951807 2.37575758,6.87349398 2.37575758,6.87349398 C2.45454545,6.8373494 2.55151515,6.59638554 2.55151515,6.59638554 L2.49090909,6.56024096 Z M5.35757576,6.56024096 L5.29090909,6.59638554 C5.29090909,6.59638554 5.38787879,6.8313253 5.47272727,6.87349398 C5.47272727,6.87349398 5.38181818,6.87951807 5.32121212,6.84337349 C5.30909091,6.89759036 5.2969697,6.98192771 5.2969697,6.98192771 C5.25454545,6.98192771 5.16969697,6.92168675 5.16969697,6.92168675 C5.15151515,6.96385542 5.12121212,7.08433735 5.12121212,7.08433735 C5.05454545,7.03614458 4.84242424,6.79518072 4.84242424,6.79518072 L4.74545455,6.86144578 C4.74545455,6.86144578 5.0969697,7.14457831 5.16969697,7.28915663 C5.17575758,7.26506024 5.17575758,7.24698795 5.18181818,7.22289157 C5.24848485,7.30722892 5.52727273,7.68072289 5.67272727,7.87349398 C5.71515152,7.93373494 5.71515152,7.9939759 5.75757576,8.04819277 C5.83030303,8.15060241 5.90909091,8.20481928 5.98787879,8.27710843 C6.01818182,8.30722892 6.10909091,8.28915663 6.13333333,8.27108434 C6.15757576,8.24096386 6.33939394,8.01807229 6.33939394,8.01807229 C6.33939394,8.01807229 6.35151515,8.03012048 6.35757576,8.06024096 C6.35757576,8.06024096 6.42424242,7.96987952 6.42424242,7.90963855 C6.42424242,7.84939759 6.4,7.78313253 6.36363636,7.72289157 C6.33333333,7.6686747 6.13333333,7.53012048 6.04848485,7.53012048 C5.94545455,7.53012048 5.8969697,7.58433735 5.83030303,7.46385542 C5.75757576,7.3373494 5.52727273,7.01204819 5.4969697,6.96385542 C5.54545455,6.96385542 5.58787879,6.95783133 5.58787879,6.95783133 C5.52727273,6.89759036 5.35757576,6.56024096 5.35757576,6.56024096 Z M2.46666667,6.93975904 C2.46666667,6.93975904 2.46666667,7.05421687 2.5030303,7.09036145 L2.63030303,7.0060241 C2.63030303,7.0060241 2.63636364,7.04819277 2.64848485,7.10240964 C2.59393939,7.1746988 2.28484848,7.59638554 2.13333333,7.80120482 C2.0969697,7.84939759 2.06060606,7.98192771 2.06060606,7.98192771 C2.06060606,7.98192771 2.00606061,7.95783133 2.00606061,7.90963855 C2.00606061,7.86144578 2.01212121,7.80722892 2.01212121,7.80722892 C2.01212121,7.80722892 1.96969697,7.85542169 1.8969697,7.85542169 C1.8969697,7.80120482 2.00606061,7.73493976 2.01212121,7.65662651 C1.92727273,7.71686747 1.85454545,7.68674699 1.75757576,7.71686747 C1.64848485,7.74698795 1.61818182,7.79518072 1.58787879,7.79518072 C1.56969697,7.79518072 1.55151515,7.75903614 1.55757576,7.74096386 C1.56969697,7.70481928 1.7030303,7.60843373 1.79393939,7.59036145 C1.81818182,7.58433735 1.98787879,7.62650602 2.02424242,7.57228916 C2.16969697,7.34939759 2.40606061,6.98795181 2.42424242,6.95783133 C2.44242424,6.95180723 2.46060606,6.94578313 2.46666667,6.93975904 Z M5.38181818,6.93975904 C5.39393939,6.94578313 5.40606061,6.95180723 5.41818182,6.95180723 C5.44242424,6.98795181 5.67272727,7.34939759 5.81818182,7.56626506 C5.85454545,7.62048193 6.03030303,7.57831325 6.04848485,7.58433735 C6.13939394,7.60240964 6.27272727,7.69879518 6.28484848,7.73493976 C6.29090909,7.75301205 6.27272727,7.78915663 6.25454545,7.78915663 C6.22424242,7.78915663 6.19393939,7.74698795 6.08484848,7.71084337 C5.98787879,7.68072289 5.91515152,7.71084337 5.83030303,7.65060241 C5.83636364,7.73493976 5.94545455,7.79518072 5.94545455,7.84939759 C5.87272727,7.84939759 5.83030303,7.80120482 5.83030303,7.80120482 C5.83030303,7.80120482 5.83636364,7.85542169 5.83636364,7.90361446 C5.83636364,7.95180723 5.78181818,7.97590361 5.78181818,7.97590361 C5.78181818,7.97590361 5.75151515,7.84337349 5.70909091,7.79518072 C5.55757576,7.59036145 5.24848485,7.1686747 5.19393939,7.09638554 C5.20606061,7.04216867 5.21212121,7 5.21212121,7 L5.33939394,7.08433735 C5.38181818,7.05421687 5.38181818,6.93975904 5.38181818,6.93975904 Z M3.47272727,7.02409639 C3.47272727,7.02409639 2.78181818,8.59638554 2.17575758,8.8373494 C2.17575758,8.8373494 2.44242424,8.95180723 2.76969697,9.12048193 C2.81818182,9.14457831 2.86666667,9.1686747 2.91515152,9.19879518 C2.95757576,9.15060241 3,9.09638554 3.04242424,9.03614458 C3.23636364,8.77710843 3.43030303,8.47590361 3.43030303,8.47590361 C3.44242424,8.55421687 3.33939394,8.79518072 3.16363636,9.09036145 C3.12727273,9.15060241 3.09090909,9.21084337 3.05454545,9.27108434 C3.0969697,9.29518072 3.14545455,9.31927711 3.18787879,9.34939759 C3.50909091,9.54216867 3.81212121,9.76506024 3.92727273,9.96987952 C4.04242424,9.76506024 4.34545455,9.54216867 4.66666667,9.34939759 C4.70909091,9.3253012 4.75151515,9.29518072 4.8,9.27108434 C4.76363636,9.21084337 4.72727273,9.15060241 4.69090909,9.09036145 C4.51515152,8.79518072 4.41212121,8.55421687 4.42424242,8.47590361 C4.42424242,8.47590361 4.61212121,8.77710843 4.81212121,9.03614458 C4.85454545,9.09036145 4.8969697,9.15060241 4.93939394,9.19879518 C4.98787879,9.1746988 5.03636364,9.14457831 5.08484848,9.12048193 C5.41212121,8.95180723 5.67878788,8.8373494 5.67878788,8.8373494 C5.06666667,8.59638554 4.38181818,7.02409639 4.38181818,7.02409639 L4.27878788,7.05421687 C4.27878788,7.05421687 4.83030303,8.40963855 5.36363636,8.8253012 C5.24242424,8.86144578 5.0969697,8.91566265 4.95151515,8.97590361 C4.76969697,8.76506024 4.58787879,8.48795181 4.43636364,8.23493976 C4.27272727,7.96385542 4.13939394,7.4939759 4.13939394,7.4939759 C4.06666667,7.6746988 4.22424242,8.59036145 4.55151515,9.1686747 C4.28484848,9.30722892 4.04242424,9.45783133 3.93333333,9.57831325 C3.81818182,9.45783133 3.58181818,9.30722892 3.31515152,9.1686747 C3.63636364,8.59036145 3.8,7.6746988 3.72727273,7.4939759 C3.72727273,7.4939759 3.59393939,7.96987952 3.43030303,8.23493976 C3.27878788,8.48795181 3.0969697,8.76506024 2.91515152,8.97590361 C2.76969697,8.91566265 2.62424242,8.86144578 2.5030303,8.8253012 C3.04242424,8.41566265 3.58787879,7.05421687 3.58787879,7.05421687 L3.47272727,7.02409639 Z M1.68942877,7.77710843 C1.69639498,7.77710843 1.7033612,7.77710843 1.7033612,7.78441037 C1.71032741,7.7917123 1.71032741,7.80631617 1.7033612,7.81361811 L1.64066527,7.87203359 C1.63369906,7.87933552 1.61976663,7.87933552 1.61280042,7.87203359 C1.6058342,7.86473165 1.6058342,7.85012778 1.61280042,7.84282585 L1.67549634,7.78441037 C1.67549634,7.77710843 1.68246256,7.77710843 1.68942877,7.77710843 Z M6.178248,7.77710843 C6.18521421,7.77710843 6.19218042,7.77710843 6.19218042,7.7842016 L6.25487635,7.84094691 C6.26184256,7.84804007 6.26184256,7.8622264 6.25487635,7.86931956 C6.24791014,7.87641272 6.23397771,7.88350589 6.22701149,7.86931956 L6.16431557,7.81257425 C6.15734936,7.80548109 6.15734936,7.79129476 6.16431557,7.7842016 C6.16431557,7.7842016 6.17128178,7.77710843 6.178248,7.77710843 Z M1.73939394,7.8253012 C1.75151515,7.8253012 1.76969697,7.8313253 1.77575758,7.84337349 C1.79393939,7.86144578 1.79393939,7.89156627 1.77575758,7.90361446 L1.63636364,8.02409639 C1.61818182,8.04216867 1.58787879,8.03614458 1.56969697,8.01807229 C1.55151515,8 1.55151515,7.96987952 1.56969697,7.95180723 L1.70909091,7.8313253 C1.72121212,7.8313253 1.72727273,7.8253012 1.73939394,7.8253012 Z M6.1030303,7.8253012 C6.10909091,7.8253012 6.10909091,7.8253012 6.11515152,7.8253012 C6.12121212,7.8253012 6.13333333,7.8313253 6.13939394,7.8373494 L6.27878788,7.95783133 C6.2969697,7.97590361 6.2969697,8 6.27878788,8.02409639 C6.26060606,8.04216867 6.23030303,8.04819277 6.21212121,8.03012048 L6.07272727,7.90963855 C6.05454545,7.89156627 6.05454545,7.86746988 6.07272727,7.84939759 C6.07878788,7.8373494 6.09090909,7.8313253 6.1030303,7.8253012 Z M1.81818182,7.92168675 C1.83030303,7.92168675 1.84848485,7.92771084 1.86060606,7.93975904 C1.87878788,7.95783133 1.87878788,7.98795181 1.86060606,8 L1.72121212,8.12048193 C1.7030303,8.13855422 1.67272727,8.13253012 1.66060606,8.11445783 C1.64242424,8.09638554 1.64242424,8.06626506 1.66060606,8.04819277 L1.8,7.92771084 C1.8,7.92168675 1.80606061,7.92168675 1.81818182,7.92168675 Z M6.02424242,7.92168675 C6.03030303,7.92168675 6.03030303,7.92168675 6.03636364,7.92168675 C6.04242424,7.92168675 6.05454545,7.92771084 6.06060606,7.93373494 L6.2,8.05421687 C6.21818182,8.07228916 6.21818182,8.09638554 6.2,8.12048193 C6.18181818,8.13855422 6.15757576,8.14457831 6.13939394,8.12650602 L6,8.0060241 C5.98181818,7.98795181 5.98181818,7.96385542 6,7.94578313 C6,7.92771084 6.01212121,7.92168675 6.02424242,7.92168675 Z M1.9030303,8.01204819 C1.91515152,8.01204819 1.93333333,8.01807229 1.94545455,8.03012048 C1.96363636,8.04819277 1.96363636,8.07831325 1.94545455,8.09638554 L1.80606061,8.21686747 C1.78787879,8.23493976 1.75757576,8.22891566 1.74545455,8.21084337 C1.72727273,8.19277108 1.72727273,8.1626506 1.74545455,8.15060241 L1.88484848,8.03012048 C1.88484848,8.01204819 1.8969697,8.01204819 1.9030303,8.01204819 Z M5.93333333,8.01204819 C5.93939394,8.01204819 5.93939394,8.01204819 5.94545455,8.01204819 C5.95151515,8.01204819 5.96363636,8.01807229 5.96969697,8.02409639 L6.10909091,8.14457831 C6.12727273,8.1626506 6.12727273,8.18674699 6.10909091,8.20481928 C6.09090909,8.22289157 6.06666667,8.22891566 6.04848485,8.21084337 L5.90909091,8.09036145 C5.89090909,8.07228916 5.89090909,8.04819277 5.90909091,8.02409639 C5.91515152,8.01807229 5.92727273,8.01204819 5.93333333,8.01204819 Z" id="Shape" fill="#010101"></path>
            <path d="M0.545454545,4.6746988 L0.43030303,4.72891566 L1.73939394,7.57831325 L1.87878788,7.57831325 L0.545454545,4.6746988 Z M2.09090909,8.03012048 L1.99393939,8.12650602 L2.05454545,8.25903614 L2.16969697,8.20481928 L2.09090909,8.03012048 Z" id="Shape" fill="#010101"></path>
            <path d="M0.951515152,6.92168675 C0.951515152,6.92168675 1.06060606,7.15060241 1.14545455,7.18072289 C1.1030303,7.1686747 0.963636364,7.21686747 0.963636364,7.21686747 C0.963636364,7.21686747 1.21212121,7.43975904 1.42424242,7.45180723 C1.6,7.46385542 1.69090909,7.37349398 1.69090909,7.37349398 L1.65454545,7.18674699 C1.65454545,7.18674699 1.54545455,7.05421687 1.36969697,6.9939759 C1.18787879,6.93373494 0.951515152,6.92168675 0.951515152,6.92168675" id="Shape" fill="#010101"></path>
            <path d="M0.16969697,4.11445783 C0.16969697,4.11445783 0.133333333,4.30722892 0.193939394,4.42168675 C0.242424242,4.52409639 0.278787879,4.54216867 0.278787879,4.54216867 C0.181818182,4.47590361 0.0303030303,4.46987952 0.0303030303,4.46987952 C0.0303030303,4.46987952 0.0848484848,4.68072289 0.212121212,4.77710843 C0.339393939,4.87349398 0.533333333,4.84939759 0.533333333,4.84939759 C0.533333333,4.84939759 0.660606061,4.68072289 0.654545455,4.5 C0.642424242,4.31927711 0.496969697,4.12048193 0.496969697,4.12048193 C0.496969697,4.12048193 0.436363636,4.24096386 0.436363636,4.3253012 C0.393939394,4.23493976 0.16969697,4.11445783 0.16969697,4.11445783 Z" id="Shape" fill="#010101"></path>
            <polygon id="Shape" fill="#2F5AA1" points="2.03636364 4.63253012 2.04242424 6.1686747 2.15151515 6.34939759 2.87272727 6.74096386 3.78787879 7.1626506 3.90909091 7.28915663 4.7030303 6.85542169 5.63636364 6.41566265 5.81212121 6.14457831 5.81212121 4.63855422"></polygon>
            <path d="M1.98787879,2.78313253 L2.03636364,2.92168675 L2.02424242,4.68072289 L2.09090909,4.75301205 L2.63636364,4.81927711 L3.22424242,4.73493976 C3.22424242,4.73493976 3.56969697,4.78915663 3.80606061,4.8253012 C3.80606061,4.8253012 3.81212121,4.86144578 3.81212121,4.86144578 C3.81212121,4.86144578 3.8969697,4.84939759 3.92727273,4.84337349 C3.95151515,4.84939759 4.03636364,4.86144578 4.03636364,4.86144578 C4.03636364,4.86144578 4.04242424,4.8253012 4.04242424,4.8253012 C4.27878788,4.78915663 4.62424242,4.73493976 4.62424242,4.73493976 L5.21212121,4.81927711 L5.75757576,4.75301205 L5.82424242,4.68072289 L5.81212121,2.92168675 L5.86060606,2.78313253 L5.20606061,2.78915663 C5.20606061,2.78915663 4.46060606,2.79518072 3.92121212,2.80120482 C3.38787879,2.79518072 2.63636364,2.78915663 2.63636364,2.78915663 L1.98787879,2.78313253 Z" id="Shape" fill="#C1202D"></path>
            <polygon id="Shape" fill="#F3EB38" points="2.17575758 4.74698795 2.47272727 4.63253012 2.67878788 4.47590361 2.81818182 4.62650602 3.1030303 4.74096386 2.87272727 4.87349398 2.66666667 5.04819277 2.49090909 4.91566265"></polygon>
            <polygon id="Shape" fill="#F3EB38" points="5.16969697 4.48192771 5.03636364 4.62650602 4.75151515 4.74096386 5.01818182 4.90963855 5.18787879 5.06024096 5.37575758 4.90963855 5.67878788 4.75903614 5.36969697 4.63253012"></polygon>
            <polygon id="Shape" fill="#F3EB38" points="3.92727273 3.03012048 3.83636364 3.29518072 3.57575758 3.1746988 3.69090909 3.42771084 3.44242424 3.53012048 3.69090909 3.61445783 3.58787879 3.87349398 3.82424242 3.74698795 3.92727273 4.01204819 4.02424242 3.74698795 4.26060606 3.85542169 4.15757576 3.61445783 4.40606061 3.53012048 4.16363636 3.42168675 4.27272727 3.1626506 4.02424242 3.28915663"></polygon>
            <polygon id="Shape" fill="#F3EB38" points="4.61212121 2.98795181 4.69090909 3.27108434 4.81818182 3.63253012 4.83030303 3.97590361 4.69090909 4.22891566 4.43030303 4.3313253 4.29090909 4.37951807 4.12121212 4.28915663 3.93333333 4.40361446 3.72727273 4.27710843 3.55757576 4.39759036 3.45454545 4.3253012 3.26666667 4.29518072 3.05454545 4.07831325 3.00606061 3.6746988 3.26666667 2.96987952 2.94545455 3.22891566 2.66666667 3.59638554 2.66666667 4.08433735 2.86666667 4.40963855 3.21818182 4.64457831 3.32121212 4.6686747 3.15151515 4.98192771 3.44242424 5.06626506 3.59393939 5.21686747 3.67272727 5.51807229 3.66060606 6.1686747 3.56969697 6.31325301 3.36969697 6.45180723 3.36363636 6.57228916 3.57575758 6.70481928 3.76363636 6.85542169 4.04242424 6.86746988 4.27878788 6.69879518 4.48484848 6.58433735 4.43030303 6.40361446 4.21818182 6.23493976 4.17575758 5.72289157 4.23636364 5.21084337 4.54545455 5.01204819 4.70909091 4.96385542 4.53939394 4.64457831 4.8 4.55421687 5.08484848 4.30722892 5.21818182 3.81325301 5.13333333 3.51204819 4.93939394 3.25903614"></polygon>
            <polygon id="Shape" fill="#F3EB38" points="5.34545455 5.8373494 5.08484848 5.71686747 4.83636364 5.76506024 4.70909091 5.91566265 4.6969697 6.1626506 4.87878788 6.37349398 4.92121212 6.38554217 4.91515152 6.15662651 5.11515152 5.89156627"></polygon>
            <polygon id="Shape" fill="#F3EB38" points="2.88484848 5.75301205 2.86060606 5.64457831 2.72121212 5.56626506 2.60606061 5.61445783 2.54545455 5.72891566 2.58181818 5.8373494 2.46060606 5.8253012 2.36363636 5.91566265 2.34545455 6.04216867 2.41212121 6.12048193 2.50909091 6.15060241 2.56363636 6.15060241 2.51515152 6.25903614 2.55151515 6.36746988 2.66666667 6.43373494 2.78787879 6.39759036 2.85454545 6.27710843 2.96363636 6.34939759 3.09090909 6.31927711 3.17575758 6.19277108 3.12121212 6.07228916 3.05454545 6.02409639 3.14545455 5.97590361 3.18181818 5.8313253 3.06060606 5.69277108 2.94545455 5.71084337"></polygon>
            <path d="M3.27272727,2.88554217 C3.25454545,3.01807229 2.6,3.28313253 2.6,3.8313253 C2.6,4.52409639 3.25454545,4.69277108 3.25454545,4.69277108 L3.22424242,4.74096386 L3.06666667,5.03012048 C3.06666667,5.03012048 3.33939394,5.04216867 3.47878788,5.1626506 C3.65454545,5.30722892 3.63636364,5.62048193 3.63636364,5.84939759 C3.63636364,6.03012048 3.61212121,6.21686747 3.52121212,6.29518072 C3.4,6.39759036 3.31515152,6.40963855 3.31515152,6.53012048 C3.31515152,6.63253012 3.39393939,6.65060241 3.52121212,6.71686747 C3.68484848,6.80120482 3.67878788,6.92168675 3.92121212,6.92168675 C4.16363636,6.92168675 4.15757576,6.80722892 4.32121212,6.71686747 C4.44848485,6.65060241 4.52727273,6.62650602 4.52727273,6.53012048 C4.52727273,6.40963855 4.44242424,6.39759036 4.32121212,6.29518072 C4.23030303,6.21686747 4.20606061,6.03012048 4.20606061,5.84939759 C4.20606061,5.62048193 4.18787879,5.31325301 4.36363636,5.1626506 C4.50909091,5.04216867 4.77575758,5.03012048 4.77575758,5.03012048 L4.61818182,4.74096386 L4.58787879,4.69277108 C4.58787879,4.69277108 5.24242424,4.53012048 5.24242424,3.8313253 C5.24242424,3.28915663 4.58787879,3.01807229 4.56969697,2.88554217 C4.5030303,3.10843373 4.78787879,3.42168675 4.78787879,3.78915663 C4.78787879,4.26506024 4.43636364,4.28915663 4.43636364,4.28915663 C4.35151515,4.28915663 4.32121212,4.34939759 4.29090909,4.34939759 C4.22424242,4.34337349 4.18787879,4.25301205 4.12121212,4.25301205 C4.05454545,4.25301205 4.00606061,4.34939759 3.92121212,4.34939759 C3.83636364,4.34939759 3.78787879,4.25301205 3.72121212,4.25301205 C3.65454545,4.25301205 3.61818182,4.34337349 3.55151515,4.34939759 C3.52121212,4.34939759 3.48484848,4.28915663 3.40606061,4.28915663 C3.40606061,4.28915663 3.05454545,4.26506024 3.05454545,3.78915663 C3.05454545,3.42168675 3.33939394,3.10843373 3.27272727,2.88554217 Z M4.62424242,4.73493976 C4.62424242,4.73493976 5.06666667,4.92771084 5.18181818,5.09036145 C5.43030303,4.90361446 5.76363636,4.75301205 5.76363636,4.75301205 C5.76363636,4.75301205 5.44848485,4.6686747 5.18181818,4.43373494 C5.03030303,4.63855422 4.62424242,4.73493976 4.62424242,4.73493976 Z M3.23030303,4.73493976 C3.23030303,4.73493976 2.82424242,4.63855422 2.67272727,4.43975904 C2.40606061,4.6746988 2.09090909,4.75903614 2.09090909,4.75903614 C2.09090909,4.75903614 2.41818182,4.90963855 2.67272727,5.09638554 C2.78787879,4.92771084 3.23030303,4.73493976 3.23030303,4.73493976 Z M3.92727273,2.93373494 L3.81212121,3.25301205 L3.5030303,3.10843373 L3.64848485,3.41566265 L3.32727273,3.53012048 L3.64848485,3.64457831 L3.5030303,3.95180723 L3.81212121,3.80722892 L3.92727273,4.12650602 L4.04242424,3.80722892 L4.35151515,3.95180723 L4.20606061,3.64457831 L4.52727273,3.53012048 L4.20606061,3.41566265 L4.35151515,3.10843373 L4.04242424,3.25301205 L3.92727273,2.93373494 Z M3.18181818,3.08433735 C3.20606061,3.14457831 2.96363636,3.5 2.96363636,3.78915663 C2.96363636,4.14457831 3.15757576,4.35542169 3.41212121,4.35542169 C3.46060606,4.35542169 3.51515152,4.42168675 3.55757576,4.42168675 C3.63030303,4.42168675 3.68484848,4.3373494 3.72727273,4.3373494 C3.78787879,4.3373494 3.82424242,4.42771084 3.92727273,4.42771084 C4.03030303,4.42771084 4.06666667,4.3373494 4.12727273,4.3373494 C4.17575758,4.3373494 4.22424242,4.42168675 4.2969697,4.42168675 C4.34545455,4.42168675 4.39393939,4.35542169 4.44242424,4.35542169 C4.6969697,4.35542169 4.89090909,4.14457831 4.89090909,3.78915663 C4.89090909,3.5 4.64242424,3.14457831 4.67272727,3.08433735 C4.67272727,3.08433735 5.15151515,3.42771084 5.15151515,3.8313253 C5.15151515,4.48192771 4.49090909,4.64457831 4.49090909,4.64457831 L4.64242424,4.97590361 C4.64242424,4.97590361 4.43636364,5.0060241 4.30909091,5.10843373 C4.13939394,5.24096386 4.13939394,5.60240964 4.13939394,5.84939759 C4.13939394,6.13855422 4.15151515,6.25903614 4.25454545,6.3373494 C4.36363636,6.42168675 4.44848485,6.43975904 4.44848485,6.52409639 C4.44848485,6.59638554 4.36363636,6.62650602 4.24848485,6.6746988 C4.12121212,6.72891566 4.10909091,6.8253012 3.92727273,6.8253012 C3.74545455,6.8253012 3.73333333,6.72891566 3.60606061,6.6746988 C3.49090909,6.62650602 3.40606061,6.59638554 3.40606061,6.52409639 C3.40606061,6.43975904 3.49090909,6.42168675 3.6,6.3373494 C3.7030303,6.25903614 3.71515152,6.13855422 3.71515152,5.84939759 C3.71515152,5.60240964 3.71515152,5.24096386 3.54545455,5.10843373 C3.41818182,5.0060241 3.21212121,4.97590361 3.21212121,4.97590361 L3.36363636,4.64457831 C3.36363636,4.64457831 2.7030303,4.48192771 2.7030303,3.8313253 C2.6969697,3.42168675 3.18181818,3.08433735 3.18181818,3.08433735 Z M3.92727273,3.15060241 L4,3.35542169 L4.2,3.25903614 L4.10909091,3.45783133 L4.31515152,3.53012048 L4.10909091,3.60240964 L4.2,3.80120482 L4,3.71084337 L3.92727273,3.91566265 L3.85454545,3.71084337 L3.66060606,3.80120482 L3.75151515,3.60240964 L3.54545455,3.53012048 L3.75151515,3.45783133 L3.66060606,3.25903614 L3.85454545,3.35542169 L3.92727273,3.15060241 Z M2.66666667,4.54216867 C2.8,4.69277108 3.01212121,4.75301205 3.01212121,4.75301205 C3.01212121,4.75301205 2.79393939,4.86746988 2.67272727,5.0060241 L2.67272727,5.01204819 C2.67272727,5.01204819 2.67272727,5.01204819 2.66666667,5.01204819 C2.66666667,5.01204819 2.66060606,5.01807229 2.66060606,5.01807229 C2.66060606,5.01807229 2.66060606,5.0060241 2.66060606,5.0060241 C2.53333333,4.89759036 2.28484848,4.77108434 2.28484848,4.77108434 C2.28484848,4.77108434 2.52727273,4.68072289 2.66666667,4.54216867 Z M5.18787879,4.54216867 C5.32727273,4.68674699 5.56969697,4.76506024 5.56969697,4.76506024 C5.56969697,4.76506024 5.32121212,4.88554217 5.19393939,5 L5.19393939,5.01204819 C5.19393939,5.01204819 5.18787879,5.0060241 5.18787879,5.0060241 C5.18787879,5.0060241 5.18787879,5.0060241 5.18181818,5.0060241 L5.18181818,5 C5.06060606,4.86746988 4.84242424,4.74698795 4.84242424,4.74698795 C4.84242424,4.74698795 5.05454545,4.69277108 5.18787879,4.54216867 Z M3.39393939,5.1626506 L3.23636364,5.31927711 L3.39393939,5.47590361 L3.55151515,5.31927711 L3.39393939,5.1626506 Z M4.46060606,5.1626506 L4.3030303,5.31927711 L4.46060606,5.47590361 L4.61818182,5.31927711 L4.46060606,5.1626506 Z M3.39393939,5.24096386 L3.47878788,5.3253012 L3.39393939,5.40963855 L3.30909091,5.3253012 L3.39393939,5.24096386 Z M4.46060606,5.24096386 L4.54545455,5.3253012 L4.46060606,5.40963855 L4.37575758,5.3253012 L4.46060606,5.24096386 Z M3.24848485,5.47590361 C3.27878788,5.55421687 3.35151515,5.78915663 3.35151515,6.07831325 C3.35151515,6.27710843 3.33333333,6.37951807 3.33333333,6.37951807 C3.33333333,6.37951807 3.55757576,6.31325301 3.6,6.09036145 C3.61818182,5.98795181 3.64242424,5.59638554 3.53939394,5.53012048 L3.24848485,5.47590361 Z M4.60606061,5.47590361 L4.31515152,5.53012048 C4.20606061,5.59638554 4.23030303,5.98192771 4.25454545,6.09036145 C4.2969697,6.31325301 4.52121212,6.37951807 4.52121212,6.37951807 C4.52121212,6.37951807 4.5030303,6.27710843 4.5030303,6.07831325 C4.4969697,5.79518072 4.56969697,5.55421687 4.60606061,5.47590361 Z M2.70909091,5.54216867 C2.6969697,5.54216867 2.68484848,5.54216867 2.67272727,5.54819277 C2.57575758,5.57228916 2.51515152,5.6746988 2.53939394,5.77108434 C2.54545455,5.78915663 2.55151515,5.80120482 2.55757576,5.81325301 C2.54545455,5.80722892 2.52727273,5.80722892 2.50909091,5.80120482 C2.5030303,5.80120482 2.4969697,5.80120482 2.49090909,5.80120482 C2.39393939,5.80722892 2.31515152,5.87951807 2.30909091,5.97590361 C2.3030303,6.07831325 2.38181818,6.1686747 2.48484848,6.1746988 C2.5030303,6.1746988 2.51515152,6.1746988 2.52727273,6.1746988 C2.52121212,6.18674699 2.50909091,6.19879518 2.5030303,6.21686747 C2.46666667,6.31325301 2.50909091,6.42168675 2.60606061,6.45783133 C2.7030303,6.4939759 2.81212121,6.44578313 2.84848485,6.35542169 C2.85454545,6.34337349 2.86060606,6.3253012 2.86060606,6.31325301 C2.86666667,6.3253012 2.87878788,6.3373494 2.89090909,6.34939759 C2.96969697,6.41566265 3.09090909,6.40361446 3.15151515,6.3253012 C3.21818182,6.24698795 3.20606061,6.13253012 3.12727273,6.06626506 C3.11515152,6.05421687 3.1030303,6.04819277 3.09090909,6.04216867 C3.1030303,6.03614458 3.12121212,6.03012048 3.13333333,6.02409639 C3.21818182,5.96987952 3.24848485,5.85542169 3.19393939,5.76506024 C3.15757576,5.70481928 3.09090909,5.6746988 3.02424242,5.68072289 C2.99393939,5.68072289 2.96363636,5.69277108 2.93939394,5.71084337 C2.92727273,5.71686747 2.91515152,5.72891566 2.9030303,5.74096386 C2.9030303,5.72891566 2.9030303,5.71084337 2.8969697,5.69277108 C2.87272727,5.59638554 2.79393939,5.53614458 2.70909091,5.54216867 Z M3.35151515,5.56626506 L3.50909091,5.59638554 C3.56363636,5.6746988 3.55757576,5.80120482 3.55757576,5.98192771 C3.55757576,6.1626506 3.42424242,6.22891566 3.42424242,6.22891566 C3.41818182,5.79518072 3.37575758,5.69277108 3.35151515,5.56626506 Z M4.5030303,5.56626506 C4.47878788,5.69879518 4.43636364,5.80120482 4.43636364,6.22891566 C4.43636364,6.22891566 4.3030303,6.1626506 4.3030303,5.98192771 C4.3030303,5.80722892 4.29090909,5.6746988 4.35151515,5.59638554 L4.5030303,5.56626506 Z M2.72121212,5.62048193 C2.78787879,5.62048193 2.84848485,5.6626506 2.86666667,5.72891566 C2.87272727,5.74698795 2.87272727,5.75903614 2.86666667,5.77710843 C2.86666667,5.78915663 2.86060606,5.80120482 2.85454545,5.81325301 C2.83030303,5.80722892 2.80606061,5.80120482 2.78181818,5.80120482 C2.72121212,5.80120482 2.66060606,5.8313253 2.62424242,5.87349398 C2.61212121,5.86144578 2.60606061,5.85542169 2.6,5.84337349 C2.59393939,5.8313253 2.58181818,5.81927711 2.58181818,5.80120482 C2.56363636,5.72289157 2.61212121,5.64457831 2.68484848,5.62650602 C2.6969697,5.62048193 2.70909091,5.62048193 2.72121212,5.62048193 Z M5.04242424,5.68072289 C4.80606061,5.68072289 4.63030303,5.86144578 4.65454545,6.09036145 C4.67272727,6.27710843 4.83030303,6.43975904 5.01818182,6.48192771 C4.98787879,6.42771084 4.96363636,6.36746988 4.95757576,6.30722892 C4.93333333,6.08433735 5.10909091,5.90361446 5.34545455,5.90361446 C5.38181818,5.90361446 5.41818182,5.90963855 5.45454545,5.91566265 C5.36969697,5.77108434 5.21212121,5.68072289 5.04242424,5.68072289 Z M3.01212121,5.72891566 C3.06060606,5.72891566 3.1030303,5.75301205 3.12727273,5.79518072 C3.16969697,5.86144578 3.15151515,5.95180723 3.07878788,5.9939759 C3.06666667,6 3.04848485,6.0060241 3.03636364,6.01204819 C3.02424242,6.01204819 3.01212121,6.01204819 3,6.01204819 C3,6.01204819 3,6.0060241 3,6.0060241 C3,5.92168675 2.94545455,5.84337349 2.87272727,5.81325301 C2.87878788,5.80120482 2.88484848,5.78915663 2.89090909,5.77710843 C2.9030303,5.76506024 2.90909091,5.75301205 2.92727273,5.74698795 C2.95151515,5.73493976 2.98181818,5.72891566 3.01212121,5.72891566 Z M5.04242424,5.75903614 C5.11515152,5.75903614 5.18787879,5.78313253 5.24848485,5.81927711 C5.01818182,5.86144578 4.84848485,6.06626506 4.87272727,6.30722892 C4.8,6.24698795 4.74545455,6.1626506 4.73333333,6.07228916 C4.71515152,5.89759036 4.84242424,5.75903614 5.04242424,5.75903614 Z M2.53939394,5.84939759 C2.55757576,5.84939759 2.56969697,5.85542169 2.58787879,5.86144578 C2.6,5.86746988 2.61212121,5.87349398 2.61818182,5.87951807 C2.58787879,5.91566265 2.57575758,5.95783133 2.57575758,6.01204819 C2.57575758,6.04819277 2.58787879,6.08433735 2.60606061,6.11445783 C2.59393939,6.12048193 2.58181818,6.12650602 2.56969697,6.13253012 C2.55757576,6.13855422 2.53939394,6.13855422 2.52727273,6.13855422 C2.44848485,6.13253012 2.38787879,6.06626506 2.39393939,5.98795181 C2.39393939,5.90361446 2.46060606,5.84337349 2.53939394,5.84939759 Z M2.78787879,5.86746988 C2.86666667,5.86746988 2.92727273,5.92771084 2.92727273,6.0060241 C2.92727273,6.08433735 2.86666667,6.14457831 2.78787879,6.14457831 C2.70909091,6.14457831 2.64848485,6.08433735 2.64848485,6.0060241 C2.64848485,5.93373494 2.70909091,5.86746988 2.78787879,5.86746988 Z M3,6.03012048 C3.01212121,6.03012048 3.03030303,6.03614458 3.04242424,6.04216867 C3.05454545,6.04819277 3.07272727,6.05421687 3.08484848,6.06626506 C3.14545455,6.11445783 3.15151515,6.21084337 3.1030303,6.27108434 C3.05454545,6.3313253 2.95757576,6.34337349 2.8969697,6.28915663 C2.88484848,6.27710843 2.87272727,6.26506024 2.86666667,6.25301205 C2.86060606,6.24096386 2.85454545,6.22891566 2.85454545,6.21686747 C2.92727273,6.18674699 2.98787879,6.11445783 3,6.03012048 Z M2.61212121,6.12650602 C2.64848485,6.18072289 2.71515152,6.21686747 2.78787879,6.21686747 C2.80606061,6.21686747 2.81818182,6.21686747 2.83030303,6.21084337 C2.83030303,6.22289157 2.83636364,6.23493976 2.83636364,6.25301205 C2.83636364,6.27108434 2.83030303,6.28313253 2.82424242,6.29518072 C2.79393939,6.36746988 2.70909091,6.40361446 2.63636364,6.37349398 C2.56363636,6.34337349 2.52727273,6.25903614 2.55757576,6.18674699 C2.56363636,6.1746988 2.56969697,6.15662651 2.58181818,6.14457831 C2.58787879,6.14457831 2.6,6.13253012 2.61212121,6.12650602 Z M3.67272727,6.46987952 C3.53939394,6.46987952 3.46060606,6.5 3.46060606,6.53614458 C3.46060606,6.57831325 3.54545455,6.60240964 3.67272727,6.60240964 C3.70909091,6.60240964 3.74545455,6.58433735 3.74545455,6.53614458 C3.74545455,6.4939759 3.70909091,6.46987952 3.67272727,6.46987952 Z M4.17575758,6.46987952 C4.13939394,6.46987952 4.1030303,6.48795181 4.1030303,6.53614458 C4.1030303,6.58433735 4.13939394,6.60240964 4.17575758,6.60240964 C4.30909091,6.60240964 4.38787879,6.57831325 4.38787879,6.53614458 C4.38787879,6.5 4.30909091,6.46987952 4.17575758,6.46987952 Z" id="Shape" fill="#010101"></path>
            <path d="M1.81818182,2.73493976 C1.81818182,2.73493976 1.98787879,2.86144578 1.98787879,2.9939759 L1.98787879,5.69879518 L1.98787879,6.10843373 C1.98787879,6.19277108 2.01212121,6.24096386 2.05454545,6.29518072 C2.0969697,6.34939759 2.18181818,6.42771084 2.27272727,6.48795181 C2.55151515,6.6686747 3.01212121,6.85542169 3.36363636,7.01204819 C3.65454545,7.14457831 3.77575758,7.19879518 3.92727273,7.38554217 C4.07878788,7.19879518 4.2,7.14457831 4.49090909,7.01204819 C4.84242424,6.85542169 5.3030303,6.6686747 5.58181818,6.48795181 C5.67272727,6.42771084 5.75757576,6.35542169 5.8,6.29518072 C5.84242424,6.24096386 5.86666667,6.18674699 5.86666667,6.10843373 L5.86666667,5.69879518 L5.86666667,2.9939759 C5.86666667,2.86144578 6.03636364,2.73493976 6.03636364,2.73493976 L5.85454545,2.73493976 L5.74545455,2.73493976 L3.93333333,2.73493976 L2.12121212,2.73493976 L2.01212121,2.73493976 L1.81818182,2.73493976 Z M2.04242424,2.8373494 L2.11515152,2.8373494 L3.92727273,2.8373494 L5.73939394,2.8373494 L5.81212121,2.8373494 C5.81212121,2.8373494 5.76363636,2.89759036 5.76363636,3 L5.76363636,5.70481928 L5.76363636,6.11445783 C5.76363636,6.18072289 5.69090909,6.34337349 5.28484848,6.54216867 C4.60606061,6.87951807 4.09090909,7.03614458 3.93333333,7.22289157 C3.77575758,7.03012048 3.25454545,6.87349398 2.58181818,6.54216867 C2.16969697,6.3373494 2.1030303,6.18072289 2.1030303,6.11445783 L2.1030303,5.70481928 L2.1030303,3 C2.09090909,2.89759036 2.04242424,2.8373494 2.04242424,2.8373494 Z" id="Shape" fill="#F3EB38"></path>
            <path d="M7.96969697,4.18072289 L7.74545455,4.34337349 L7.76969697,4.39759036 C7.76969697,4.39759036 7.72727273,4.40963855 7.70909091,4.44578313 C7.69090909,4.48192771 7.72121212,4.53614458 7.72121212,4.53614458 C7.72121212,4.53614458 7.50909091,4.51807229 7.47272727,4.53614458 C7.44242424,4.55421687 7.48484848,4.70481928 7.46666667,4.8253012 C7.43636364,5 7.36969697,4.98192771 7.36969697,5.01807229 C7.36969697,5.04819277 7.39393939,5.10240964 7.39393939,5.10240964 C7.39393939,5.10240964 7.35151515,5.11445783 7.34545455,5.13253012 C7.33333333,5.1626506 7.35757576,5.21084337 7.33939394,5.24096386 C7.24848485,5.42168675 7.10909091,5.69277108 7.01818182,5.86746988 C7.00606061,5.89156627 6.96969697,5.90361446 6.95151515,5.93373494 C6.93333333,5.96385542 6.95151515,6.01204819 6.95151515,6.01204819 C6.95151515,6.01204819 6.89090909,6.01807229 6.87272727,6.05421687 C6.84848485,6.09638554 6.86060606,6.15662651 6.86060606,6.15662651 C6.86060606,6.15662651 6.82424242,6.1626506 6.80606061,6.19879518 C6.78787879,6.23493976 6.81818182,6.25903614 6.81212121,6.27710843 C6.69090909,6.51807229 6.54545455,6.79518072 6.46060606,6.96987952 C6.43030303,7.03012048 6.31515152,7.04819277 6.24848485,7.1746988 C6.18181818,7.30120482 6.27878788,7.39156627 6.27878788,7.39156627 C6.27878788,7.39156627 6.18181818,7.39759036 6.15757576,7.45180723 C6.13333333,7.5 6.15151515,7.57831325 6.21818182,7.61445783 C6.28484848,7.65060241 6.36363636,7.62048193 6.38787879,7.57228916 C6.41212121,7.52409639 6.36363636,7.43975904 6.36363636,7.43975904 C6.36363636,7.43975904 6.49090909,7.45783133 6.55757576,7.3313253 C6.62424242,7.20481928 6.56969697,7.10843373 6.6,7.04216867 C6.68484848,6.87349398 6.83030303,6.59036145 6.95151515,6.34939759 C6.95757576,6.3313253 6.99393939,6.34939759 7.01818182,6.30722892 C7.03636364,6.27108434 7.01818182,6.23493976 7.01818182,6.23493976 C7.01818182,6.23493976 7.07272727,6.21084337 7.0969697,6.1686747 C7.11515152,6.12650602 7.08484848,6.07831325 7.08484848,6.07831325 C7.08484848,6.07831325 7.12727273,6.06024096 7.14545455,6.03012048 C7.16363636,5.9939759 7.15151515,5.96385542 7.16363636,5.93975904 C7.25454545,5.76506024 7.39393939,5.4939759 7.48484848,5.31325301 C7.5030303,5.28313253 7.55757576,5.27108434 7.56969697,5.24096386 C7.57575758,5.22289157 7.56363636,5.18674699 7.56363636,5.18674699 C7.56363636,5.18674699 7.62424242,5.18072289 7.64848485,5.15662651 C7.67272727,5.13253012 7.62424242,5.09036145 7.74545455,4.96385542 C7.83636364,4.87349398 7.98181818,4.81927711 7.97575758,4.78313253 C7.97575758,4.74096386 7.83030303,4.58433735 7.83030303,4.58433735 C7.83030303,4.58433735 7.89090909,4.57831325 7.90909091,4.54216867 C7.92727273,4.5060241 7.91515152,4.46385542 7.91515152,4.46385542 L7.97575758,4.45180723 L7.97575758,4.18072289 L7.96969697,4.18072289 Z M5.84848485,8.18072289 C5.81818182,8.18072289 5.8,8.19879518 5.79393939,8.21084337 C5.78787879,8.22891566 5.78181818,8.25301205 5.79393939,8.27108434 C5.79393939,8.27108434 5.72121212,8.24698795 5.6969697,8.25903614 C5.67272727,8.27108434 5.6969697,8.60240964 5.6969697,8.60240964 C5.6969697,8.60240964 5.98181818,8.42168675 5.97575758,8.39759036 C5.96969697,8.37349398 5.90909091,8.3253012 5.90909091,8.3253012 C5.93333333,8.31927711 5.95151515,8.30722892 5.95757576,8.28915663 C5.96969697,8.27108434 5.96969697,8.21686747 5.9030303,8.18674699 C5.89090909,8.18072289 5.86666667,8.1746988 5.84848485,8.18072289 Z" id="Shape" fill="#010101"></path>
            <path d="M7.92727273,4.25903614 L7.79393939,4.34939759 L7.86060606,4.38554217 L7.92727273,4.42168675 L7.92727273,4.25903614 Z M7.8,4.41566265 C7.77575758,4.41566265 7.75757576,4.42771084 7.74545455,4.45180723 C7.72727273,4.48795181 7.74545455,4.53012048 7.78181818,4.54819277 C7.81818182,4.56626506 7.86666667,4.55421687 7.87878788,4.52409639 C7.8969697,4.48795181 7.87878788,4.44578313 7.84242424,4.42771084 C7.83030303,4.41566265 7.81212121,4.41566265 7.8,4.41566265 Z M7.55151515,4.57228916 C7.53333333,4.57228916 7.51515152,4.57228916 7.51515152,4.57228916 C7.5030303,4.58433735 7.52121212,4.69879518 7.51515152,4.80120482 C7.50909091,4.89759036 7.47878788,4.92168675 7.46060606,4.95783133 C7.44242424,4.98795181 7.38787879,5.02409639 7.38787879,5.02409639 L7.43636364,5.07228916 C7.43636364,5.07228916 7.46666667,5.02409639 7.51515152,4.93373494 C7.56969697,4.8253012 7.56969697,4.62650602 7.58787879,4.61445783 C7.6,4.60240964 7.72121212,4.57831325 7.72121212,4.57831325 C7.72121212,4.57831325 7.61212121,4.57228916 7.55151515,4.57228916 Z M7.75757576,4.59638554 C7.75757576,4.59638554 7.63636364,4.62048193 7.61818182,4.63855422 C7.6,4.65662651 7.60606061,4.81927711 7.54545455,4.95180723 C7.49090909,5.06024096 7.46666667,5.09638554 7.46666667,5.09638554 L7.5030303,5.11445783 L7.53939394,5.13253012 C7.53939394,5.13253012 7.55757576,5.09036145 7.61212121,4.98192771 C7.67878788,4.85542169 7.81818182,4.75903614 7.82424242,4.73493976 C7.80606061,4.71084337 7.75757576,4.59638554 7.75757576,4.59638554 Z M7.79393939,4.61445783 C7.79393939,4.61445783 7.83636364,4.72891566 7.84242424,4.74096386 C7.84242424,4.75903614 7.67878788,4.87349398 7.62424242,4.98795181 C7.57575758,5.08433735 7.55757576,5.13253012 7.55757576,5.13253012 L7.62424242,5.14457831 C7.62424242,5.14457831 7.61818182,5.07831325 7.63636364,5.04819277 C7.65454545,5.01204819 7.66060606,4.97590361 7.73333333,4.91566265 C7.81212121,4.84939759 7.92121212,4.79518072 7.92121212,4.78313253 C7.91515152,4.76506024 7.79393939,4.61445783 7.79393939,4.61445783 Z M7.43030303,5.14457831 C7.41212121,5.14457831 7.39393939,5.15662651 7.38787879,5.1746988 C7.37575758,5.19879518 7.38181818,5.22891566 7.28484848,5.42168675 C7.24242424,5.5060241 7.22424242,5.53614458 7.17575758,5.63253012 C7.12727273,5.72289157 7.06060606,5.85542169 7.06060606,5.85542169 C7.06060606,5.85542169 7.03636364,5.89759036 7.07878788,5.92168675 C7.12121212,5.94578313 7.13939394,5.89759036 7.13939394,5.89759036 C7.13939394,5.89759036 7.20606061,5.76506024 7.25454545,5.6746988 C7.3030303,5.58433735 7.32121212,5.54819277 7.36363636,5.46385542 C7.46060606,5.27108434 7.49090909,5.25903614 7.5030303,5.23493976 C7.51515152,5.21084337 7.51515152,5.1746988 7.46666667,5.15060241 C7.45454545,5.14457831 7.44242424,5.14457831 7.43030303,5.14457831 Z M7.00606061,5.93975904 C6.98787879,5.93975904 6.97575758,5.94578313 6.96969697,5.95783133 C6.95757576,5.98192771 6.97575758,6.01807229 7.01818182,6.03614458 C7.05454545,6.05421687 7.0969697,6.05421687 7.10909091,6.03012048 C7.12121212,6.0060241 7.0969697,5.96987952 7.06060606,5.95180723 C7.04242424,5.93975904 7.02424242,5.93975904 7.00606061,5.93975904 Z M6.95151515,6.05421687 C6.92121212,6.05421687 6.9030303,6.06024096 6.89090909,6.08433735 C6.87272727,6.11445783 6.8969697,6.15662651 6.94545455,6.18072289 C6.99393939,6.20481928 7.04242424,6.19879518 7.05454545,6.1686747 C7.07272727,6.13855422 7.04848485,6.09638554 7,6.07228916 C6.98181818,6.06024096 6.96363636,6.05421687 6.95151515,6.05421687 Z M6.87272727,6.19879518 C6.85454545,6.19879518 6.84242424,6.20481928 6.83636364,6.21686747 C6.82424242,6.24096386 6.84242424,6.27710843 6.88484848,6.29518072 C6.92121212,6.31325301 6.96363636,6.31325301 6.97575758,6.28915663 C6.98787879,6.26506024 6.96969697,6.22891566 6.92727273,6.21084337 C6.90909091,6.20481928 6.89090909,6.19879518 6.87272727,6.19879518 Z M6.84242424,6.3253012 C6.81818182,6.3253012 6.80606061,6.35542169 6.80606061,6.35542169 C6.80606061,6.35542169 6.55757576,6.8373494 6.47272727,7.0060241 C6.44242424,7.06024096 6.32727273,7.09638554 6.28484848,7.18072289 C6.23636364,7.27108434 6.27272727,7.35542169 6.33333333,7.38554217 C6.39393939,7.41566265 6.48484848,7.39156627 6.52727273,7.30120482 C6.57575758,7.21084337 6.53333333,7.09638554 6.55757576,7.04216867 C6.64242424,6.87349398 6.89090909,6.39156627 6.89090909,6.39156627 C6.89090909,6.39156627 6.91515152,6.34939759 6.87272727,6.3253012 C6.85454545,6.3253012 6.84848485,6.3253012 6.84242424,6.3253012 Z M6.24242424,7.43373494 C6.21212121,7.43373494 6.18787879,7.44578313 6.17575758,7.46987952 C6.15757576,7.5060241 6.17575758,7.55421687 6.22424242,7.57831325 C6.26666667,7.60240964 6.32121212,7.59036145 6.33939394,7.55421687 C6.35757576,7.51807229 6.33333333,7.46987952 6.29090909,7.44578313 C6.27878788,7.43975904 6.26060606,7.43373494 6.24242424,7.43373494 Z M5.84848485,8.21084337 C5.83636364,8.21084337 5.82424242,8.21742709 5.81818182,8.2240108 C5.80606061,8.24376193 5.83030303,8.27668049 5.86060606,8.29643163 C5.8969697,8.31618276 5.92727273,8.31618276 5.93939394,8.29643163 C5.95151515,8.27668049 5.92727273,8.24376193 5.8969697,8.2240108 C5.87878788,8.21084337 5.86666667,8.21084337 5.84848485,8.21084337 Z M5.73333333,8.30120482 L5.73333333,8.54216867 L5.92727273,8.40361446 C5.92727273,8.40361446 5.9030303,8.35542169 5.84242424,8.3253012 C5.78787879,8.29518072 5.73333333,8.30120482 5.73333333,8.30120482 Z" id="Shape" fill="#F3EB38"></path>
        </g>
        <rect id="Rectangle-18-Copy-2" fill="#D12028" x="20" y="0" width="10" height="20"></rect>
    </g>
</svg>