<?xml version="1.0" encoding="UTF-8"?>
<svg width="30px" height="20px" viewBox="0 0 30 20" version="1.1" xmlns="http://www.w3.org/2000/svg" xmlns:xlink="http://www.w3.org/1999/xlink" style="background: #FFFFFF;">
    <!-- Generator: Sketch 49.3 (51167) - http://www.bohemiancoding.com/sketch -->
    <title>icons/flag/tajikistan</title>
    <desc>Created with Sketch.</desc>
    <defs></defs>
    <g id="icons/flag/tajikistan" stroke="none" stroke-width="1" fill="none" fill-rule="evenodd">
        <rect id="Rectangle-13" fill="#EA0042" x="0" y="0" width="30" height="6"></rect>
        <rect id="Rectangle-13-Copy" fill="#F2F2F2" x="0" y="6" width="30" height="8"></rect>
        <rect id="Rectangle-13-Copy-2" fill="#58B44D" x="0" y="14" width="30" height="6"></rect>
        <g id="Group-10" transform="translate(11.000000, 7.000000)" fill="#CFB428" fill-rule="nonzero">
            <path d="M3.975,4.74807692 C4.13125,4.92115385 4.69375,5.1 5.175,4.875 C5.25,5.08269231 5.85,5.42307692 6.39375,5.05961538 C5.80625,4.98461538 5.4875,4.80576923 5.1625,4.40192308 C4.8375,4.64423077 4.30625,4.425 4.1875,4.30961538 L4.19375,2.91346154 L4.96875,2.20961538 C4.96875,2.05961538 4.46875,1.62692308 3.975,1.62692308 C3.475,1.62692308 2.98125,2.05384615 2.98125,2.20961538 L3.75625,2.91346154 L3.7625,4.30961538 C3.64375,4.425 3.1125,4.63846154 2.7875,4.40192308 C2.4625,4.80576923 2.14375,4.98461538 1.55625,5.05961538 C2.09375,5.42307692 2.7,5.08269231 2.775,4.875 C3.25625,5.10576923 3.81875,4.92115385 3.975,4.74807692 Z M3.975,2.67692308 C3.78125,2.37115385 3.3875,2.25576923 3.3875,2.25576923 C3.3875,2.25576923 3.5875,1.95576923 3.975,1.95576923 C4.3625,1.95576923 4.5625,2.25576923 4.5625,2.25576923 C4.5625,2.25576923 4.16875,2.37115385 3.975,2.67692308 Z" id="Shape"></path>
            <path d="M3.975,5.475 C3.2625,5.475 2.8125,5.70576923 2.58125,5.94807692 L2.38125,5.75192308 C2.5625,5.55 2.80625,5.475 2.8625,5.22115385 C2.925,5.04230769 2.7875,4.90384615 2.7875,4.90384615 C2.7875,4.90384615 2.9875,5.15769231 3.4875,5.15769231 C3.79375,5.15769231 3.98125,4.84615385 3.98125,4.84615385 M3.975,4.84038462 C3.975,4.84038462 4.1625,5.15192308 4.46875,5.15192308 C4.96875,5.15192308 5.16875,4.89807692 5.16875,4.89807692 C5.16875,4.89807692 5.03125,5.03653846 5.09375,5.21538462 C5.15625,5.46923077 5.4,5.54423077 5.575,5.74615385 L5.375,5.94230769 C5.1375,5.7 4.6875,5.46923077 3.98125,5.46923077" id="Shape"></path>
            <polygon id="Shape" points="7.4 3.19038462 7.5375 3.57692308 7.975 3.57692308 7.61875 3.81346154 7.75625 4.19423077 7.4 3.95769231 7.05 4.19423077 7.1875 3.81346154 6.83125 3.57692308 7.26875 3.57692308"></polygon>
            <polygon id="Shape" points="6.94375 1.62115385 7.08125 2.00192308 7.51875 2.00192308 7.1625 2.23846154 7.3 2.625 6.94375 2.38846154 6.59375 2.625 6.73125 2.23846154 6.375 2.00192308 6.8125 2.00192308"></polygon>
            <polygon id="Shape" points="5.7 0.473076923 5.8375 0.853846154 6.275 0.853846154 5.91875 1.09038462 6.05625 1.47692308 5.7 1.23461538 5.35 1.47692308 5.48125 1.09038462 5.13125 0.853846154 5.56875 0.853846154"></polygon>
            <polygon id="Shape" points="4 0.0519230769 4.1375 0.432692308 4.56875 0.432692308 4.21875 0.669230769 4.35 1.05576923 4 0.819230769 3.65 1.05576923 3.78125 0.669230769 3.43125 0.432692308 3.8625 0.432692308"></polygon>
            <polygon id="Shape" points="2.3 0.473076923 2.43125 0.853846154 2.86875 0.853846154 2.51875 1.09038462 2.65 1.47692308 2.3 1.23461538 1.94375 1.47692308 2.08125 1.09038462 1.725 0.853846154 2.1625 0.853846154"></polygon>
            <polygon id="Shape" points="1.05625 1.62115385 1.1875 2.00192308 1.625 2.00192308 1.26875 2.23846154 1.40625 2.625 1.05625 2.38846154 0.7 2.625 0.8375 2.23846154 0.48125 2.00192308 0.91875 2.00192308"></polygon>
            <polygon id="Shape" points="0.6 3.19038462 0.73125 3.57692308 1.16875 3.57692308 0.8125 3.81346154 0.95 4.19423077 0.6 3.95769231 0.24375 4.19423077 0.38125 3.81346154 0.025 3.57692308 0.4625 3.57692308"></polygon>
        </g>
    </g>
</svg>