<?xml version="1.0" encoding="UTF-8"?>
<svg width="30px" height="20px" viewBox="0 0 30 20" version="1.1" xmlns="http://www.w3.org/2000/svg" xmlns:xlink="http://www.w3.org/1999/xlink" style="background: #FFFFFF;">
    <!-- Generator: Sketch 49.3 (51167) - http://www.bohemiancoding.com/sketch -->
    <title>icons/flag/uzbekistan</title>
    <desc>Created with Sketch.</desc>
    <defs></defs>
    <g id="icons/flag/uzbekistan" stroke="none" stroke-width="1" fill="none" fill-rule="evenodd">
        <rect id="Rectangle-13" fill="#4497B1" x="0" y="0" width="30" height="6"></rect>
        <rect id="Rectangle-13-Copy" fill="#F2F2F2" x="0" y="6" width="30" height="8"></rect>
        <rect id="Rectangle-13-Copy-3" fill="#BC0030" x="0" y="5" width="30" height="1"></rect>
        <rect id="Rectangle-13-Copy-2" fill="#50B63F" x="0" y="14" width="30" height="6"></rect>
        <rect id="Rectangle-13-Copy-4" fill="#BC0030" x="0" y="14" width="30" height="1"></rect>
        <path d="M2.27349854,2.39886475 C2.27349854,2.14154053 2.11693677,1.74645996 3.51904297,0.670227051 C2.1859093,0.670227051 0.973876953,1.27069092 0.973876953,2.39886475 C0.973876953,3.52703857 1.86315223,4.3182373 3.69843188,4.3182373 C2.03801498,3.49926758 2.27349854,2.65618896 2.27349854,2.39886475 Z" id="Path-2" fill="#FFFFFF"></path>
        <path d="M6,3 L7,3 L7,4 L6,4 L6,3 Z M8,3 L9,3 L9,4 L8,4 L8,3 Z M10,3 L11,3 L11,4 L10,4 L10,3 Z M12,3 L13,3 L13,4 L12,4 L12,3 Z M14,3 L15,3 L15,4 L14,4 L14,3 Z M8,1 L9,1 L9,2 L8,2 L8,1 Z M10,1 L11,1 L11,2 L10,2 L10,1 Z M12,1 L13,1 L13,2 L12,2 L12,1 Z M14,1 L15,1 L15,2 L14,2 L14,1 Z" id="Combined-Shape" fill="#FFFFFF"></path>
    </g>
</svg>